<?xml version="1.0" encoding="UTF-8" standalone="no"?>
<!DOCTYPE svg PUBLIC "-//W3C//DTD SVG 1.0//EN" "http://www.w3.org/TR/2001/PR-SVG-20010719/DTD/svg10.dtd">
<svg width="64cm" height="39cm" viewBox="-791 -481 1261 766" xmlns="http://www.w3.org/2000/svg" xmlns:xlink="http://www.w3.org/1999/xlink">
  <g>
    <rect style="fill: #ffffff" x="-459.22" y="-5.73624" width="425.8" height="44"/>
    <rect style="fill: none; fill-opacity:0; stroke-width: 2; stroke: #000000" x="-459.22" y="-5.73624" width="425.8" height="44"/>
    <text font-size="12.8" style="fill: #000000;text-anchor:middle;font-family:monospace;font-style:normal;font-weight:normal" x="-246.32" y="10.2638">&lt;&lt;Iterable&lt;Pawn&gt;&gt;&gt;</text>
    <text font-size="16" style="fill: #000000;text-anchor:middle;font-family:sans-serif;font-style:normal;font-weight:700" x="-246.32" y="29.2638">Board</text>
    <rect style="fill: #ffffff" x="-459.22" y="38.2638" width="425.8" height="116"/>
    <rect style="fill: none; fill-opacity:0; stroke-width: 2; stroke: #000000" x="-459.22" y="38.2638" width="425.8" height="116"/>
    <text font-size="12.8" style="fill: #000000;text-anchor:start;font-family:monospace;font-style:normal;font-weight:normal" x="-456.22" y="52.2638">+getPawn(coordinates:Coordinates): Pawn</text>
    <text font-size="12.8" style="fill: #000000;text-anchor:start;font-family:monospace;font-style:normal;font-weight:normal" x="-456.22" y="68.2638">+move(orig:Coordinates,dest:Coordinates): void</text>
    <text font-size="12.8" style="fill: #000000;text-anchor:start;font-family:monospace;font-style:normal;font-weight:normal" x="-456.22" y="84.2638">+addPawn(pawn:Pawn,coordinates:Coordinates): void</text>
    <text font-size="12.8" style="fill: #000000;text-anchor:start;font-family:monospace;font-style:normal;font-weight:normal" x="-456.22" y="100.264">+getInitalZone(player:Player): Collection&lt;Square&gt;</text>
    <text font-size="12.8" style="fill: #000000;text-anchor:start;font-family:monospace;font-style:normal;font-weight:normal" x="-456.22" y="116.264">-checkMove(orig:Coordinates,dest:Coordinates): boolean</text>
    <text font-size="12.8" style="fill: #000000;text-anchor:start;font-family:monospace;font-style:normal;font-weight:normal" x="-456.22" y="132.264">+checkMove(path:List&lt;Coordinates&gt;): boolean</text>
    <text font-size="12.8" style="fill: #000000;text-anchor:start;font-family:monospace;font-style:normal;font-weight:normal" x="-456.22" y="148.264">+getPossiblePlayerNumbers(): OrderedSet&lt;Integer&gt;</text>
  </g>
  <g>
    <rect style="fill: #ffffff" x="-31.4084" y="204.158" width="364.2" height="28"/>
    <rect style="fill: none; fill-opacity:0; stroke-width: 2; stroke: #000000" x="-31.4084" y="204.158" width="364.2" height="28"/>
    <text font-size="16" style="fill: #000000;text-anchor:middle;font-family:sans-serif;font-style:normal;font-weight:700" x="150.692" y="223.158">Pawn</text>
    <rect style="fill: #ffffff" x="-31.4084" y="232.158" width="364.2" height="52"/>
    <rect style="fill: none; fill-opacity:0; stroke-width: 2; stroke: #000000" x="-31.4084" y="232.158" width="364.2" height="52"/>
    <text font-size="12.8" style="fill: #000000;text-anchor:start;font-family:monospace;font-style:normal;font-weight:normal" x="-28.4084" y="246.158">+getOwner(): Player</text>
    <text font-size="12.8" style="fill: #000000;text-anchor:start;font-family:monospace;font-style:normal;font-weight:normal" x="-28.4084" y="262.158">+getCoordinates(): Coordinates</text>
    <text font-size="12.8" style="fill: #000000;text-anchor:start;font-family:monospace;font-style:normal;font-weight:normal" x="-28.4084" y="278.158">+setCoordinates(coordinates:Coordinates): void</text>
  </g>
  <g>
    <rect style="fill: #ffffff" x="320.69" y="50.2638" width="148.6" height="28"/>
    <rect style="fill: none; fill-opacity:0; stroke-width: 2; stroke: #000000" x="320.69" y="50.2638" width="148.6" height="28"/>
    <text font-size="16" style="fill: #000000;text-anchor:middle;font-family:sans-serif;font-style:normal;font-weight:700" x="394.99" y="69.2638">Player</text>
    <rect style="fill: #ffffff" x="320.69" y="78.2638" width="148.6" height="20"/>
    <rect style="fill: none; fill-opacity:0; stroke-width: 2; stroke: #000000" x="320.69" y="78.2638" width="148.6" height="20"/>
    <text font-size="12.8" style="fill: #000000;text-anchor:start;font-family:monospace;font-style:normal;font-weight:normal" x="323.69" y="92.2638">+getName(): String</text>
  </g>
  <g>
    <rect style="fill: #ffffff" x="26.3416" y="-185.626" width="248.7" height="28"/>
    <rect style="fill: none; fill-opacity:0; stroke-width: 2; stroke: #000000" x="26.3416" y="-185.626" width="248.7" height="28"/>
    <text font-size="16" style="fill: #000000;text-anchor:middle;font-family:sans-serif;font-style:normal;font-weight:700" x="150.692" y="-166.626">Game</text>
    <rect style="fill: #ffffff" x="26.3416" y="-157.626" width="248.7" height="116"/>
    <rect style="fill: none; fill-opacity:0; stroke-width: 2; stroke: #000000" x="26.3416" y="-157.626" width="248.7" height="116"/>
    <text font-size="12.8" style="fill: #000000;text-anchor:start;font-family:monospace;font-style:normal;font-weight:normal" x="29.3416" y="-143.626">+getPlayers(): Player[*]</text>
    <text font-size="12.8" style="fill: #000000;text-anchor:start;font-family:monospace;font-style:normal;font-weight:normal" x="29.3416" y="-127.626">+addPlayer(player:Player): void</text>
    <text font-size="12.8" style="fill: #000000;text-anchor:start;font-family:monospace;font-style:normal;font-weight:normal" x="29.3416" y="-111.626">+nextTurn(): void</text>
    <text font-size="12.8" style="fill: #000000;text-anchor:start;font-family:monospace;font-style:normal;font-weight:normal" x="29.3416" y="-95.6264">+getCurrentPlayer(): Player</text>
    <text font-size="12.8" style="fill: #000000;text-anchor:start;font-family:monospace;font-style:normal;font-weight:normal" x="29.3416" y="-79.6264">+getBoard(): Board</text>
    <text font-size="12.8" style="fill: #000000;text-anchor:start;font-family:monospace;font-style:normal;font-weight:normal" x="29.3416" y="-63.6264">+getWinner(): Player</text>
    <text font-size="12.8" style="fill: #000000;text-anchor:start;font-family:monospace;font-style:normal;font-weight:normal" x="29.3416" y="-47.6264">+isGameOver(): boolean</text>
  </g>
  <g>
    <path style="fill: none; fill-opacity:0; stroke-width: 2; stroke: #000000" d="M 19.17 -115.626 C -13.1166,-115.626 -239.994,-62.736 -246.32,-5.73624"/>
    <polygon style="fill: #000000" points="26.3416,-115.626 21.3416,-110.626 16.3416,-115.626 21.3416,-120.626 "/>
    <polygon style="fill: none; fill-opacity:0; stroke-width: 2; stroke: #000000" points="26.3416,-115.626 21.3416,-110.626 16.3416,-115.626 21.3416,-120.626 "/>
  </g>
  <g>
    <path style="fill: none; fill-opacity:0; stroke-width: 2; stroke: #000000" d="M 395.281 105.429 C 398.716,189.914 470.394,241.808 332.792,242.158"/>
    <polygon style="fill: #ffffff" points="394.99,98.2638 400.189,103.057 395.396,108.256 390.197,103.463 "/>
    <polygon style="fill: none; fill-opacity:0; stroke-width: 2; stroke: #000000" points="394.99,98.2638 400.189,103.057 395.396,108.256 390.197,103.463 "/>
  </g>
  <g>
    <path style="fill: none; fill-opacity:0; stroke-width: 2; stroke: #000000" d="M -246.44 161.434 C -248.418,279.514 -74.0161,244.158 -32.3917,244.158"/>
    <polygon style="fill: #000000" points="-246.32,154.264 -241.404,159.347 -246.487,164.262 -251.403,159.179 "/>
    <polygon style="fill: none; fill-opacity:0; stroke-width: 2; stroke: #000000" points="-246.32,154.264 -241.404,159.347 -246.487,164.262 -251.403,159.179 "/>
  </g>
  <g>
    <path style="fill: none; fill-opacity:0; stroke-width: 2; stroke: #000000" d="M 282.214 -115.626 C 324.426,-115.626 381.718,-3.58624 394.99,50.2638"/>
    <polygon style="fill: #000000" points="275.042,-115.626 280.042,-120.626 285.042,-115.626 280.042,-110.626 "/>
    <polygon style="fill: none; fill-opacity:0; stroke-width: 2; stroke: #000000" points="275.042,-115.626 280.042,-120.626 285.042,-115.626 280.042,-110.626 "/>
  </g>
  <g>
    <rect style="fill: #ffffff" x="-789.512" y="42.2638" width="148.6" height="28"/>
    <rect style="fill: none; fill-opacity:0; stroke-width: 2; stroke: #000000" x="-789.512" y="42.2638" width="148.6" height="28"/>
    <text font-size="16" style="fill: #000000;text-anchor:middle;font-family:sans-serif;font-style:normal;font-weight:700" x="-715.212" y="61.2638">Square</text>
    <rect style="fill: #ffffff" x="-789.512" y="70.2638" width="148.6" height="36"/>
    <rect style="fill: none; fill-opacity:0; stroke-width: 2; stroke: #000000" x="-789.512" y="70.2638" width="148.6" height="36"/>
    <text font-size="12.8" style="fill: #000000;text-anchor:start;font-family:monospace;font-style:normal;font-weight:normal" x="-786.512" y="84.2638">+getPawn(): Pawn</text>
    <text font-size="12.8" style="fill: #000000;text-anchor:start;font-family:monospace;font-style:normal;font-weight:normal" x="-786.512" y="100.264">+isFree(): boolean</text>
  </g>
  <g>
    <path style="fill: none; fill-opacity:0; stroke-width: 2; stroke: #000000" d="M -466.392 80.2638 C -593.292,80.2638 -506.84,80.2638 -640.912,80.2638"/>
    <polygon style="fill: #000000" points="-459.22,80.2638 -464.22,85.2638 -469.22,80.2638 -464.22,75.2638 "/>
    <polygon style="fill: none; fill-opacity:0; stroke-width: 2; stroke: #000000" points="-459.22,80.2638 -464.22,85.2638 -469.22,80.2638 -464.22,75.2638 "/>
  </g>
  <g>
    <path style="fill: none; fill-opacity:0; stroke-width: 2; stroke: #000000" d="M -714.466 113.396 C -705.946,194.884 -242.832,258.158 -31.4084,258.158"/>
    <polygon style="fill: #ffffff" points="-715.212,106.264 -709.719,110.717 -714.172,116.21 -719.665,111.757 "/>
    <polygon style="fill: none; fill-opacity:0; stroke-width: 2; stroke: #000000" points="-715.212,106.264 -709.719,110.717 -714.172,116.21 -719.665,111.757 "/>
  </g>
  <g>
    <rect style="fill: #00ff00" x="-311.67" y="-479.228" width="130.7" height="28"/>
    <rect style="fill: none; fill-opacity:0; stroke-width: 2; stroke: #000000" x="-311.67" y="-479.228" width="130.7" height="28"/>
    <text font-size="16" style="fill: #000000;text-anchor:middle;font-family:sans-serif;font-style:normal;font-weight:700" x="-246.32" y="-460.228">Le contrôleur</text>
  </g>
  <g>
    <path style="fill: none; fill-opacity:0; stroke-width: 2; stroke: #00ff00" d="M -246.32 -451.228 C -245.806,-384.534 156.335,-251.286 151.075,-190.082"/>
    <polyline style="fill: none; fill-opacity:0; stroke-width: 2; stroke: #00ff00" points="146.758,-198.246 150.883,-187.854 156.721,-197.389 "/>
  </g>
  <path style="fill: none; fill-opacity:0; stroke-width: 2; stroke: #00ff00" d="M -246.32 -451.228 C -248.736,-365.978 -242.736,-45.6746 -246.32,-5.73624"/>
  <g>
    <rect style="fill: #00ff00" x="-200.072" y="-414.116" width="164.85" height="14.9"/>
    <text font-size="12.8" style="fill: #000000;text-anchor:start;font-family:sans-serif;font-style:normal;font-weight:normal" x="-200.072" y="-402.216">
      <tspan x="-200.072" y="-402.216">1. Récupère joueur actuel</tspan>
    </text>
  </g>
  <g>
    <rect style="fill: #00ff00" x="-360.994" y="-338.62" width="229.35" height="46.9"/>
    <text font-size="12.8" style="fill: #000000;text-anchor:start;font-family:sans-serif;font-style:normal;font-weight:normal" x="-360.994" y="-326.72">
      <tspan x="-360.994" y="-326.72">2. Vérifier le mouvement</tspan>
      <tspan x="-360.994" y="-310.72">3. Effectuer le mouvement (ou non)</tspan>
      <tspan x="-360.994" y="-294.72">    --&gt; màj du modèle</tspan>
    </text>
  </g>
</svg>
