<?xml version="1.0" encoding="UTF-8" standalone="no"?>
<!DOCTYPE svg PUBLIC "-//W3C//DTD SVG 1.0//EN" "http://www.w3.org/TR/2001/PR-SVG-20010719/DTD/svg10.dtd">
<svg width="64cm" height="43cm" viewBox="-834 -566 1279 843" xmlns="http://www.w3.org/2000/svg" xmlns:xlink="http://www.w3.org/1999/xlink">
  <g>
    <rect style="fill: #ffffff" x="-485.444" y="-98.4964" width="425.8" height="44"/>
    <rect style="fill: none; fill-opacity:0; stroke-width: 2; stroke: #000000" x="-485.444" y="-98.4964" width="425.8" height="44"/>
    <text font-size="12.8" style="fill: #000000;text-anchor:middle;font-family:monospace;font-style:normal;font-weight:normal" x="-272.544" y="-82.4964">&lt;&lt;Iterable&lt;Pawn&gt;&gt;&gt;</text>
    <text font-size="16" style="fill: #000000;text-anchor:middle;font-family:sans-serif;font-style:normal;font-weight:700" x="-272.544" y="-63.4964">Board</text>
    <rect style="fill: #ffffff" x="-485.444" y="-54.4964" width="425.8" height="116"/>
    <rect style="fill: none; fill-opacity:0; stroke-width: 2; stroke: #000000" x="-485.444" y="-54.4964" width="425.8" height="116"/>
    <text font-size="12.8" style="fill: #000000;text-anchor:start;font-family:monospace;font-style:normal;font-weight:normal" x="-482.444" y="-40.4964">+getPawn(coordinates:Coordinates): Pawn</text>
    <text font-size="12.8" style="fill: #000000;text-anchor:start;font-family:monospace;font-style:normal;font-weight:normal" x="-482.444" y="-24.4964">+getCoordinates(pawn:Pawn): Coordinates</text>
    <text font-size="12.8" style="fill: #000000;text-anchor:start;font-family:monospace;font-style:normal;font-weight:normal" x="-482.444" y="-8.4964">+move(orig:Coordinates,dest:Coordinates): void</text>
    <text font-size="12.8" style="fill: #000000;text-anchor:start;font-family:monospace;font-style:normal;font-weight:normal" x="-482.444" y="7.5036">+addPawn(pawn:Pawn,coordinates:Coordinates): void</text>
    <text font-size="12.8" style="fill: #000000;text-anchor:start;font-family:monospace;font-style:normal;font-weight:normal" x="-482.444" y="23.5036">+getInitalZone(player:Player): Collection&lt;Square&gt;</text>
    <text font-size="12.8" style="fill: #000000;text-anchor:start;font-family:monospace;font-style:normal;font-weight:normal" x="-482.444" y="39.5036">-checkMove(orig:Coordinates,dest:Coordinates): boolean</text>
    <text font-size="12.8" style="fill: #000000;text-anchor:start;font-family:monospace;font-style:normal;font-weight:normal" x="-482.444" y="55.5036">+checkMove(path:List&lt;Coordinates&gt;): boolean</text>
  </g>
  <g>
    <rect style="fill: #ffffff" x="-121.284" y="211.941" width="241" height="28"/>
    <rect style="fill: none; fill-opacity:0; stroke-width: 2; stroke: #000000" x="-121.284" y="211.941" width="241" height="28"/>
    <text font-size="16" style="fill: #000000;text-anchor:middle;font-family:sans-serif;font-style:normal;font-weight:700" x="-0.783561" y="230.941">Pawn</text>
    <rect style="fill: #ffffff" x="-121.284" y="239.941" width="241" height="36"/>
    <rect style="fill: none; fill-opacity:0; stroke-width: 2; stroke: #000000" x="-121.284" y="239.941" width="241" height="36"/>
    <text font-size="12.8" style="fill: #000000;text-anchor:start;font-family:monospace;font-style:normal;font-weight:normal" x="-118.284" y="253.941">+getOwner(): Player</text>
    <text font-size="12.8" style="fill: #000000;text-anchor:start;font-family:monospace;font-style:normal;font-weight:normal" x="-118.284" y="269.941">+getCoordinates(): Coordinates</text>
  </g>
  <g>
    <rect style="fill: #ffffff" x="295.666" y="-140.937" width="148.6" height="44"/>
    <rect style="fill: none; fill-opacity:0; stroke-width: 2; stroke: #000000" x="295.666" y="-140.937" width="148.6" height="44"/>
    <text font-size="12.8" style="fill: #000000;text-anchor:middle;font-family:monospace;font-style:normal;font-weight:normal" x="369.966" y="-124.937">&lt;&lt;Iterable&lt;Pawn&gt;&gt;&gt;</text>
    <text font-size="16" style="fill: #000000;text-anchor:middle;font-family:sans-serif;font-style:normal;font-weight:700" x="369.966" y="-105.937">Player</text>
    <rect style="fill: #ffffff" x="295.666" y="-96.9366" width="148.6" height="20"/>
    <rect style="fill: none; fill-opacity:0; stroke-width: 2; stroke: #000000" x="295.666" y="-96.9366" width="148.6" height="20"/>
    <text font-size="12.8" style="fill: #000000;text-anchor:start;font-family:monospace;font-style:normal;font-weight:normal" x="298.666" y="-82.9366">+getName(): String</text>
  </g>
  <g>
    <rect style="fill: #ffffff" x="-125.786" y="-302.296" width="248.7" height="28"/>
    <rect style="fill: none; fill-opacity:0; stroke-width: 2; stroke: #000000" x="-125.786" y="-302.296" width="248.7" height="28"/>
    <text font-size="16" style="fill: #000000;text-anchor:middle;font-family:sans-serif;font-style:normal;font-weight:700" x="-1.4356" y="-283.296">Game</text>
    <rect style="fill: #ffffff" x="-125.786" y="-274.296" width="248.7" height="116"/>
    <rect style="fill: none; fill-opacity:0; stroke-width: 2; stroke: #000000" x="-125.786" y="-274.296" width="248.7" height="116"/>
    <text font-size="12.8" style="fill: #000000;text-anchor:start;font-family:monospace;font-style:normal;font-weight:normal" x="-122.786" y="-260.296">+getPlayers(): Player[*]</text>
    <text font-size="12.8" style="fill: #000000;text-anchor:start;font-family:monospace;font-style:normal;font-weight:normal" x="-122.786" y="-244.296">+addPlayer(player:Player): void</text>
    <text font-size="12.8" style="fill: #000000;text-anchor:start;font-family:monospace;font-style:normal;font-weight:normal" x="-122.786" y="-228.296">+nextTurn(): void</text>
    <text font-size="12.8" style="fill: #000000;text-anchor:start;font-family:monospace;font-style:normal;font-weight:normal" x="-122.786" y="-212.296">+getCurrentPlayer(): Player</text>
    <text font-size="12.8" style="fill: #000000;text-anchor:start;font-family:monospace;font-style:normal;font-weight:normal" x="-122.786" y="-196.296">+getBoard(): Board</text>
    <text font-size="12.8" style="fill: #000000;text-anchor:start;font-family:monospace;font-style:normal;font-weight:normal" x="-122.786" y="-180.296">+getWinner(): Player</text>
    <text font-size="12.8" style="fill: #000000;text-anchor:start;font-family:monospace;font-style:normal;font-weight:normal" x="-122.786" y="-164.296">+isGameOver(): boolean</text>
  </g>
  <g>
    <path style="fill: none; fill-opacity:0; stroke-width: 2; stroke: #000000" d="M -133.945 -230.296 C -166.232,-230.296 -257.229,-156.493 -263.555,-99.4928"/>
    <polygon style="fill: #000000" points="-126.773,-230.296 -131.773,-225.296 -136.773,-230.296 -131.773,-235.296 "/>
    <polygon style="fill: none; fill-opacity:0; stroke-width: 2; stroke: #000000" points="-126.773,-230.296 -131.773,-225.296 -136.773,-230.296 -131.773,-235.296 "/>
  </g>
  <g>
    <path style="fill: none; fill-opacity:0; stroke-width: 2; stroke: #000000" d="M 371.599 -68.7696 C 375.034,15.7146 258.318,243.282 120.717,243.632"/>
    <polygon style="fill: #ffffff" points="371.308,-75.9353 376.507,-71.1425 371.714,-65.9435 366.515,-70.7363 "/>
    <polygon style="fill: none; fill-opacity:0; stroke-width: 2; stroke: #000000" points="371.308,-75.9353 376.507,-71.1425 371.714,-65.9435 366.515,-70.7363 "/>
  </g>
  <g>
    <path style="fill: none; fill-opacity:0; stroke-width: 2; stroke: #000000" d="M -274.021 69.6677 C -275.999,187.747 -163.904,243.941 -122.279,243.941"/>
    <polygon style="fill: #000000" points="-273.901,62.4972 -268.985,67.5802 -274.068,72.4958 -278.984,67.4127 "/>
    <polygon style="fill: none; fill-opacity:0; stroke-width: 2; stroke: #000000" points="-273.901,62.4972 -268.985,67.5802 -274.068,72.4958 -278.984,67.4127 "/>
  </g>
  <g>
    <path style="fill: none; fill-opacity:0; stroke-width: 2; stroke: #000000" d="M 131.093 -230.296 C 173.307,-230.296 348.562,-195.783 361.834,-141.933"/>
    <polygon style="fill: #000000" points="123.922,-230.296 128.922,-235.296 133.922,-230.296 128.922,-225.296 "/>
    <polygon style="fill: none; fill-opacity:0; stroke-width: 2; stroke: #000000" points="123.922,-230.296 128.922,-235.296 133.922,-230.296 128.922,-225.296 "/>
  </g>
  <g>
    <rect style="fill: #ffffff" x="-687.099" y="-283.144" width="425.8" height="28"/>
    <rect style="fill: none; fill-opacity:0; stroke-width: 2; stroke: #000000" x="-687.099" y="-283.144" width="425.8" height="28"/>
    <text font-size="16" style="fill: #000000;text-anchor:middle;font-family:sans-serif;font-style:normal;font-weight:700" x="-474.199" y="-264.144">GameFactory</text>
    <rect style="fill: #ffffff" x="-687.099" y="-255.144" width="425.8" height="20"/>
    <rect style="fill: none; fill-opacity:0; stroke-width: 2; stroke: #000000" x="-687.099" y="-255.144" width="425.8" height="20"/>
    <text font-size="12.8" style="fill: #000000;text-anchor:start;font-family:monospace;font-style:normal;font-weight:normal" x="-684.099" y="-241.144">+makeGame(boardFilePath:String,playerNumber:int): Game</text>
  </g>
  <g>
    <rect style="fill: #ffffff" x="-832.405" y="-4.4502" width="148.6" height="28"/>
    <rect style="fill: none; fill-opacity:0; stroke-width: 2; stroke: #000000" x="-832.405" y="-4.4502" width="148.6" height="28"/>
    <text font-size="16" style="fill: #000000;text-anchor:middle;font-family:sans-serif;font-style:normal;font-weight:700" x="-758.105" y="14.5498">Square</text>
    <rect style="fill: #ffffff" x="-832.405" y="23.5498" width="148.6" height="36"/>
    <rect style="fill: none; fill-opacity:0; stroke-width: 2; stroke: #000000" x="-832.405" y="23.5498" width="148.6" height="36"/>
    <text font-size="12.8" style="fill: #000000;text-anchor:start;font-family:monospace;font-style:normal;font-weight:normal" x="-829.405" y="37.5498">+getPawn(): Pawn</text>
    <text font-size="12.8" style="fill: #000000;text-anchor:start;font-family:monospace;font-style:normal;font-weight:normal" x="-829.405" y="53.5498">+isFree(): boolean</text>
  </g>
  <g>
    <path style="fill: none; fill-opacity:0; stroke-width: 2; stroke: #000000" d="M -492.616 -28.4964 C -619.517,-28.4964 -549.732,33.5498 -683.805,33.5498"/>
    <polygon style="fill: #000000" points="-485.444,-28.4964 -490.444,-23.4964 -495.444,-28.4964 -490.444,-33.4964 "/>
    <polygon style="fill: none; fill-opacity:0; stroke-width: 2; stroke: #000000" points="-485.444,-28.4964 -490.444,-23.4964 -495.444,-28.4964 -490.444,-33.4964 "/>
  </g>
  <g>
    <path style="fill: none; fill-opacity:0; stroke-width: 2; stroke: #000000" d="M -757.359 66.6825 C -748.838,148.17 -332.708,265.941 -121.284,265.941"/>
    <polygon style="fill: #ffffff" points="-758.105,59.5498 -752.612,64.0027 -757.065,69.4956 -762.557,65.0427 "/>
    <polygon style="fill: none; fill-opacity:0; stroke-width: 2; stroke: #000000" points="-758.105,59.5498 -752.612,64.0027 -757.065,69.4956 -762.557,65.0427 "/>
  </g>
  <g>
    <rect style="fill: #00ff00" x="-194.192" y="-564.197" width="130.7" height="28"/>
    <rect style="fill: none; fill-opacity:0; stroke-width: 2; stroke: #000000" x="-194.192" y="-564.197" width="130.7" height="28"/>
    <text font-size="16" style="fill: #000000;text-anchor:middle;font-family:sans-serif;font-style:normal;font-weight:700" x="-128.842" y="-545.197">Le contrôleur</text>
  </g>
  <g>
    <path style="fill: none; fill-opacity:0; stroke-width: 2; stroke: #00ff00" d="M -128.842 -536.197 C -128.329,-469.504 4.20808,-367.955 -1.05261,-306.752"/>
    <polyline style="fill: none; fill-opacity:0; stroke-width: 2; stroke: #00ff00" points="-5.36935,-314.915 -1.24411,-304.524 4.59391,-314.059 "/>
  </g>
  <path style="fill: none; fill-opacity:0; stroke-width: 2; stroke: #00ff00" d="M -128.842 -536.197 C -131.259,-450.948 -268.96,-138.435 -272.544,-98.4964"/>
  <g>
    <rect style="fill: #00ff00" x="-92.816" y="-515.8" width="164.85" height="14.9"/>
    <text font-size="12.7998" style="fill: #000000;text-anchor:start;font-family:sans-serif;font-style:normal;font-weight:normal" x="-92.816" y="-503.9">
      <tspan x="-92.816" y="-503.9">1. Récupère joueur actuel</tspan>
    </text>
  </g>
  <g>
    <rect style="fill: #00ff00" x="-287.027" y="-387.371" width="229.35" height="46.9"/>
    <text font-size="12.7998" style="fill: #000000;text-anchor:start;font-family:sans-serif;font-style:normal;font-weight:normal" x="-287.027" y="-375.471">
      <tspan x="-287.027" y="-375.471">2. Vérifier le mouvement</tspan>
      <tspan x="-287.027" y="-359.471">3. Effectuer le mouvement (ou non)</tspan>
      <tspan x="-287.027" y="-343.471">    --&gt; màj du modèle</tspan>
    </text>
  </g>
</svg>
