<?xml version="1.0" encoding="UTF-8" standalone="no"?>
<!DOCTYPE svg PUBLIC "-//W3C//DTD SVG 1.0//EN" "http://www.w3.org/TR/2001/PR-SVG-20010719/DTD/svg10.dtd">
<svg width="42cm" height="70cm" viewBox="-522 -180 837 1384" xmlns="http://www.w3.org/2000/svg" xmlns:xlink="http://www.w3.org/1999/xlink">
  <g>
    <ellipse style="fill: #ffffff" cx="-68.9286" cy="526.606" rx="79.4836" ry="33.4363"/>
    <ellipse style="fill: none; fill-opacity:0; stroke-width: 2; stroke: #000000" cx="-68.9286" cy="526.606" rx="79.4836" ry="33.4363"/>
    <text font-size="12.8" style="fill: #000000;text-anchor:middle;font-family:sans-serif;font-style:normal;font-weight:normal" x="-68.9286" y="522.506">
      <tspan x="-68.9286" y="522.506">orig A=L_i</tspan>
      <tspan x="-68.9286" y="538.506">dest B=L_(i+1)</tspan>
    </text>
  </g>
  <g>
    <line style="fill: none; fill-opacity:0; stroke-width: 2; stroke: #000000" x1="-68.9286" y1="-25.8482" x2="-68.9286" y2="2.46928"/>
    <polygon style="fill: #000000" points="-73.9286,2.46928 -68.9286,12.4693 -63.9286,2.46928 "/>
    <polygon style="fill: none; fill-opacity:0; stroke-width: 2; stroke: #000000" points="-73.9286,2.46928 -68.9286,12.4693 -63.9286,2.46928 "/>
  </g>
  <g>
    <polygon style="fill: #ffffff" points="-68.9287,13.4693 145.527,67.0831 -68.9287,120.697 -283.384,67.0831 "/>
    <polygon style="fill: none; fill-opacity:0; stroke-width: 2; stroke: #000000" points="-68.9287,13.4693 145.527,67.0831 -68.9287,120.697 -283.384,67.0831 "/>
    <text font-size="12.8" style="fill: #000000;text-anchor:middle;font-family:sans-serif;font-style:normal;font-weight:normal" x="-68.9287" y="62.9831">
      <tspan x="-68.9287" y="62.9831">Est-ce que le pion à la position L1,</tspan>
      <tspan x="-68.9287" y="78.9831">s'il existe, appartient au joueur J ?</tspan>
    </text>
  </g>
  <g>
    <line style="fill: none; fill-opacity:0; stroke-width: 2; stroke: #000000" x1="-68.9286" y1="367.986" x2="-68.9284" y2="290.451"/>
    <polygon style="fill: #000000" points="-73.9286,367.986 -68.9286,383.986 -63.9286,367.986 "/>
    <polygon style="fill: none; fill-opacity:0; stroke-width: 2; stroke: #000000" points="-73.9286,367.986 -68.9286,383.986 -63.9286,367.986 "/>
    <text font-size="12.7998" style="fill: #000000;text-anchor:middle;font-family:sans-serif;font-style:normal;font-weight:normal" x="-50.3522" y="340.144">non</text>
  </g>
  <g>
    <polygon style="fill: #ffffff" points="-68.9297,591.28 98.0507,633.025 -68.9297,674.77 -235.91,633.025 "/>
    <polygon style="fill: none; fill-opacity:0; stroke-width: 2; stroke: #000000" points="-68.9297,591.28 98.0507,633.025 -68.9297,674.77 -235.91,633.025 "/>
    <text font-size="12.8" style="fill: #000000;text-anchor:middle;font-family:sans-serif;font-style:normal;font-weight:normal" x="-68.9297" y="636.925">
      <tspan x="-68.9297" y="636.925">A et B sont-elles adjacentes ?</tspan>
    </text>
  </g>
  <g>
    <polygon style="fill: #ffffff" points="-70.3339,750.678 132.854,818.633 -70.3339,886.588 -273.522,818.633 "/>
    <polygon style="fill: none; fill-opacity:0; stroke-width: 2; stroke: #000000" points="-70.3339,750.678 132.854,818.633 -70.3339,886.588 -273.522,818.633 "/>
    <text font-size="12.8" style="fill: #000000;text-anchor:middle;font-family:sans-serif;font-style:normal;font-weight:normal" x="-70.3339" y="806.533">
      <tspan x="-70.3339" y="806.533">Existe-t-il une case adjacente</tspan>
      <tspan x="-70.3339" y="822.533">à A et B qui soit occupée</tspan>
      <tspan x="-70.3339" y="838.533">et alignée avec elles ?</tspan>
    </text>
  </g>
  <g>
    <line style="fill: none; fill-opacity:0; stroke-width: 2; stroke: #000000" x1="-69.6852" y1="732.892" x2="-69.2525" y2="675.694"/>
    <polygon style="fill: #000000" points="-74.6851,732.854 -69.8063,748.891 -64.6854,732.929 "/>
    <polygon style="fill: none; fill-opacity:0; stroke-width: 2; stroke: #000000" points="-74.6851,732.854 -69.8063,748.891 -64.6854,732.929 "/>
    <text font-size="12.7998" style="fill: #000000;text-anchor:middle;font-family:sans-serif;font-style:normal;font-weight:normal" x="-50.9558" y="709.348">non</text>
  </g>
  <g>
    <line style="fill: none; fill-opacity:0; stroke-width: 2; stroke: #000000" x1="-69.4816" y1="919.893" x2="-69.7551" y2="887.402"/>
    <polygon style="fill: #000000" points="-74.4814,919.935 -69.3469,935.893 -64.4817,919.851 "/>
    <polygon style="fill: none; fill-opacity:0; stroke-width: 2; stroke: #000000" points="-74.4814,919.935 -69.3469,935.893 -64.4817,919.851 "/>
    <text font-size="12.7998" style="fill: #000000;text-anchor:middle;font-family:sans-serif;font-style:normal;font-weight:normal" x="-58.5906" y="914.624">oui</text>
  </g>
  <g>
    <ellipse style="fill: #ffffff" cx="-68.9286" cy="-68.6589" rx="121.72" ry="42.8107"/>
    <ellipse style="fill: none; fill-opacity:0; stroke-width: 2; stroke: #000000" cx="-68.9286" cy="-68.6589" rx="121.72" ry="42.8107"/>
    <text font-size="12.8" style="fill: #000000;text-anchor:middle;font-family:sans-serif;font-style:normal;font-weight:normal" x="-68.9286" y="-72.7589">
      <tspan x="-68.9286" y="-72.7589">Liste L de points (L1, ..., Ln)</tspan>
      <tspan x="-68.9286" y="-56.7589">Joueur J</tspan>
    </text>
  </g>
  <text font-size="12.8" style="fill: #000000;text-anchor:start;font-family:sans-serif;font-style:normal;font-weight:normal" x="-68.9286" y="-68.659">
    <tspan x="-68.9286" y="-68.659"></tspan>
  </text>
  <text font-size="12.8" style="fill: #000000;text-anchor:start;font-family:sans-serif;font-style:normal;font-weight:normal" x="-521.894" y="-45.7132">
    <tspan x="-521.894" y="-45.7132">On suppose n &gt;= 2.</tspan>
    <tspan x="-521.894" y="-29.7132">Les Li, i=1, n appartiennent au plateau.</tspan>
    <tspan x="-521.894" y="-13.7132">Le NON est implicite et entraîne la fin de l'algorithme.</tspan>
  </text>
  <g>
    <line style="fill: none; fill-opacity:0; stroke-width: 2; stroke: #000000" x1="-68.9286" y1="574.28" x2="-68.9286" y2="560.042"/>
    <polygon style="fill: #000000" points="-73.9286,574.28 -68.9286,590.28 -63.9286,574.28 "/>
    <polygon style="fill: none; fill-opacity:0; stroke-width: 2; stroke: #000000" points="-73.9286,574.28 -68.9286,590.28 -63.9286,574.28 "/>
  </g>
  <g>
    <polygon style="fill: #ffffff" points="-68.9287,937.602 2.67964,985.578 -68.9287,1033.55 -140.537,985.578 "/>
    <polygon style="fill: none; fill-opacity:0; stroke-width: 2; stroke: #000000" points="-68.9287,937.602 2.67964,985.578 -68.9287,1033.55 -140.537,985.578 "/>
    <text font-size="12.8" style="fill: #000000;text-anchor:middle;font-family:sans-serif;font-style:normal;font-weight:normal" x="-68.9287" y="989.478">
      <tspan x="-68.9287" y="989.478">i + 1 == n ?</tspan>
    </text>
  </g>
  <g>
    <line style="fill: none; fill-opacity:0; stroke-width: 2; stroke: #000000" x1="-68.9286" y1="1144.41" x2="-68.9286" y2="1033.55"/>
    <polygon style="fill: #000000" points="-73.9286,1144.41 -68.9286,1160.41 -63.9286,1144.41 "/>
    <polygon style="fill: none; fill-opacity:0; stroke-width: 2; stroke: #000000" points="-73.9286,1144.41 -68.9286,1160.41 -63.9286,1144.41 "/>
    <text font-size="12.7998" style="fill: #000000;text-anchor:middle;font-family:sans-serif;font-style:normal;font-weight:normal" x="-51.9494" y="1099.91">oui</text>
  </g>
  <g>
    <ellipse style="fill: #ffffff" cx="-68.9287" cy="1182.33" rx="44.7865" ry="20.9136"/>
    <ellipse style="fill: none; fill-opacity:0; stroke-width: 2; stroke: #000000" cx="-68.9287" cy="1182.33" rx="44.7865" ry="20.9136"/>
    <text font-size="12.8" style="fill: #000000;text-anchor:middle;font-family:sans-serif;font-style:normal;font-weight:normal" x="-68.9287" y="1186.23">
      <tspan x="-68.9287" y="1186.23">OUI</tspan>
    </text>
  </g>
  <g>
    <line style="fill: none; fill-opacity:0; stroke-width: 2; stroke: #000000" x1="204.246" y1="985.349" x2="2.67964" y2="985.578"/>
    <polygon style="fill: #000000" points="204.252,990.349 220.246,985.331 204.24,980.349 "/>
    <polygon style="fill: none; fill-opacity:0; stroke-width: 2; stroke: #000000" points="204.252,990.349 220.246,985.331 204.24,980.349 "/>
  </g>
  <g>
    <ellipse style="fill: #ffffff" cx="267.654" cy="985.33" rx="46.4079" ry="23.2039"/>
    <ellipse style="fill: none; fill-opacity:0; stroke-width: 2; stroke: #000000" cx="267.654" cy="985.33" rx="46.4079" ry="23.2039"/>
    <text font-size="12.8" style="fill: #000000;text-anchor:middle;font-family:sans-serif;font-style:normal;font-weight:normal" x="267.654" y="989.23">
      <tspan x="267.654" y="989.23">i = i + 1</tspan>
    </text>
  </g>
  <g>
    <polyline style="fill: none; fill-opacity:0; stroke-width: 2; stroke: #000000" points="267.654,962.126 267.654,526.606 21.555,526.606 "/>
    <polygon style="fill: #000000" points="21.555,521.606 11.555,526.606 21.555,531.606 "/>
    <polygon style="fill: none; fill-opacity:0; stroke-width: 2; stroke: #000000" points="21.555,521.606 11.555,526.606 21.555,531.606 "/>
  </g>
  <g>
    <ellipse style="fill: #ffffff" cx="-68.9287" cy="413.064" rx="54.1641" ry="27.0821"/>
    <ellipse style="fill: none; fill-opacity:0; stroke-width: 2; stroke: #000000" cx="-68.9287" cy="413.064" rx="54.1641" ry="27.0821"/>
    <text font-size="12.8" style="fill: #000000;text-anchor:middle;font-family:sans-serif;font-style:normal;font-weight:normal" x="-68.9287" y="416.964">
      <tspan x="-68.9287" y="416.964">indice i = 1</tspan>
    </text>
  </g>
  <g>
    <line style="fill: none; fill-opacity:0; stroke-width: 2; stroke: #000000" x1="-68.9286" y1="440.146" x2="-68.9286" y2="482.17"/>
    <polygon style="fill: #000000" points="-73.9286,482.17 -68.9286,492.17 -63.9286,482.17 "/>
    <polygon style="fill: none; fill-opacity:0; stroke-width: 2; stroke: #000000" points="-73.9286,482.17 -68.9286,492.17 -63.9286,482.17 "/>
  </g>
  <text font-size="19.7556" style="fill: #000000;text-anchor:start;font-family:sans-serif;font-style:normal;font-weight:normal" x="-278.7" y="-161.363">
    <tspan x="-278.7" y="-161.363">Algorithme de test de déplacement d'un pion.</tspan>
  </text>
  <g>
    <polygon style="fill: #ffffff" points="-358.185,625.934 -205.283,701.59 -358.185,777.247 -511.088,701.59 "/>
    <polygon style="fill: none; fill-opacity:0; stroke-width: 2; stroke: #000000" points="-358.185,625.934 -205.283,701.59 -358.185,777.247 -511.088,701.59 "/>
    <text font-size="12.8" style="fill: #000000;text-anchor:middle;font-family:sans-serif;font-style:normal;font-weight:normal" x="-358.185" y="697.49">
      <tspan x="-358.185" y="697.49">Est-ce que L2 est</tspan>
      <tspan x="-358.185" y="713.49"> adjacente à L1 et non-vide ?</tspan>
    </text>
  </g>
  <g>
    <polygon style="fill: #ffffff" points="-68.9283,215.542 66.2554,252.497 -68.9283,289.452 -204.112,252.497 "/>
    <polygon style="fill: none; fill-opacity:0; stroke-width: 2; stroke: #000000" points="-68.9283,215.542 66.2554,252.497 -68.9283,289.452 -204.112,252.497 "/>
    <text font-size="12.8" style="fill: #000000;text-anchor:middle;font-family:sans-serif;font-style:normal;font-weight:normal" x="-68.9283" y="256.397">
      <tspan x="-68.9283" y="256.397">Est-ce que n = 2 ?</tspan>
    </text>
  </g>
  <g>
    <line style="fill: none; fill-opacity:0; stroke-width: 2; stroke: #000000" x1="-68.9284" y1="197.542" x2="-68.9286" y2="121.697"/>
    <polygon style="fill: #000000" points="-73.9284,197.542 -68.9284,213.542 -63.9284,197.542 "/>
    <polygon style="fill: none; fill-opacity:0; stroke-width: 2; stroke: #000000" points="-73.9284,197.542 -68.9284,213.542 -63.9284,197.542 "/>
    <text font-size="12.7998" style="fill: #000000;text-anchor:middle;font-family:sans-serif;font-style:normal;font-weight:normal" x="-53.5466" y="174.832">oui</text>
  </g>
  <g>
    <line style="fill: none; fill-opacity:0; stroke-width: 2; stroke: #000000" x1="-311.543" y1="629.174" x2="-89.7125" y2="284.766"/>
    <polygon style="fill: #000000" points="-315.746,626.467 -320.207,642.626 -307.339,631.882 "/>
    <polygon style="fill: none; fill-opacity:0; stroke-width: 2; stroke: #000000" points="-315.746,626.467 -320.207,642.626 -307.339,631.882 "/>
    <text font-size="12.7998" style="fill: #000000;text-anchor:middle;font-family:sans-serif;font-style:normal;font-weight:normal" x="-227.644" y="456.742">oui</text>
  </g>
  <g>
    <line style="fill: none; fill-opacity:0; stroke-width: 2; stroke: #000000" x1="-90.3209" y1="1146.77" x2="-322.642" y2="760.663"/>
    <polygon style="fill: #000000" points="-94.6052,1149.35 -82.0719,1160.48 -86.0366,1144.19 "/>
    <polygon style="fill: none; fill-opacity:0; stroke-width: 2; stroke: #000000" points="-94.6052,1149.35 -82.0719,1160.48 -86.0366,1144.19 "/>
    <text font-size="12.7998" style="fill: #000000;text-anchor:middle;font-family:sans-serif;font-style:normal;font-weight:normal" x="-218.06" y="975.838">oui</text>
  </g>
</svg>
