<?xml version="1.0" encoding="UTF-8" standalone="no"?>
<!DOCTYPE svg PUBLIC "-//W3C//DTD SVG 1.0//EN" "http://www.w3.org/TR/2001/PR-SVG-20010719/DTD/svg10.dtd">
<svg width="136cm" height="83cm" viewBox="-1319 -499 2717 1644" xmlns="http://www.w3.org/2000/svg" xmlns:xlink="http://www.w3.org/1999/xlink">
  <g>
    <rect style="fill: #ffffff" x="-980.495" y="-232.091" width="1783.64" height="881.86"/>
    <rect style="fill: none; fill-opacity:0; stroke-width: 2; stroke: #000000" x="-980.495" y="-232.091" width="1783.64" height="881.86"/>
    <rect style="fill: #ffffff" x="-980.495" y="-252.091" width="42.5" height="20"/>
    <rect style="fill: none; fill-opacity:0; stroke-width: 2; stroke: #000000" x="-980.495" y="-252.091" width="42.5" height="20"/>
    <text font-size="12.7998" style="fill: #000000;text-anchor:start;font-family:monospace;font-style:normal;font-weight:normal" x="-978.495" y="-237.091">model</text>
  </g>
  <g>
    <rect style="fill: #ffffff" x="-477.808" y="-24.3237" width="448.9" height="28"/>
    <rect style="fill: none; fill-opacity:0; stroke-width: 2; stroke: #000000" x="-477.808" y="-24.3237" width="448.9" height="28"/>
    <text font-size="16" style="fill: #000000;text-anchor:middle;font-family:sans-serif;font-style:italic;font-weight:700" x="-253.358" y="-5.32373">AbstractBoard</text>
    <rect style="fill: #ffffff" x="-477.808" y="3.67627" width="448.9" height="20"/>
    <rect style="fill: none; fill-opacity:0; stroke-width: 2; stroke: #000000" x="-477.808" y="3.67627" width="448.9" height="20"/>
    <text font-size="12.8" style="fill: #000000;text-anchor:start;font-family:monospace;font-style:normal;font-weight:normal" x="-474.808" y="17.6763">#board: Square[][]</text>
    <rect style="fill: #ffffff" x="-477.808" y="23.6763" width="448.9" height="116"/>
    <rect style="fill: none; fill-opacity:0; stroke-width: 2; stroke: #000000" x="-477.808" y="23.6763" width="448.9" height="116"/>
    <text font-size="12.8" style="fill: #000000;text-anchor:start;font-family:monospace;font-style:normal;font-weight:normal" x="-474.808" y="37.6763">+AbstractBoard(board:Square[][])</text>
    <text font-size="12.8" style="fill: #000000;text-anchor:start;font-family:monospace;font-style:normal;font-weight:normal" x="-474.808" y="53.6763">+getPawn(coordinates:Coordinates): Pawn</text>
    <text font-size="12.8" style="fill: #000000;text-anchor:start;font-family:monospace;font-style:normal;font-weight:normal" x="-474.808" y="69.6763">+setPawn(pawn:Pawn,coordinates:Coordinates): void</text>
    <text font-size="12.8" style="fill: #000000;text-anchor:start;font-family:monospace;font-style:normal;font-weight:normal" x="-474.808" y="85.6763">+move(orig:Coordinates,dest:Coordinates): void</text>
    <text font-size="12.8" style="fill: #000000;text-anchor:start;font-family:monospace;font-style:normal;font-weight:normal" x="-474.808" y="101.676">+checkMove(path:List&lt;Coordinates&gt;,player:Player): boolean</text>
    <text font-size="12.8" style="fill: #000000;text-anchor:start;font-family:monospace;font-style:italic;font-weight:700" x="-474.808" y="117.676">+getPossiblePlayerNumbers(): SortedSet&lt;Integer&gt;</text>
    <text font-size="12.8" style="fill: #000000;text-anchor:start;font-family:monospace;font-style:italic;font-weight:700" x="-474.808" y="133.676">+dispatchZones(teams:Set&lt;Team&gt;): void</text>
  </g>
  <g>
    <rect style="fill: #ffffff" x="-197.395" y="328.142" width="156.3" height="28"/>
    <rect style="fill: none; fill-opacity:0; stroke-width: 2; stroke: #000000" x="-197.395" y="328.142" width="156.3" height="28"/>
    <text font-size="16" style="fill: #000000;text-anchor:middle;font-family:sans-serif;font-style:normal;font-weight:700" x="-119.245" y="347.142">Pawn</text>
    <rect style="fill: #ffffff" x="-197.395" y="356.142" width="156.3" height="20"/>
    <rect style="fill: none; fill-opacity:0; stroke-width: 2; stroke: #000000" x="-197.395" y="356.142" width="156.3" height="20"/>
    <text font-size="12.8" style="fill: #000000;text-anchor:start;font-family:monospace;font-style:normal;font-weight:normal" x="-194.395" y="370.142">-owner: Player</text>
    <rect style="fill: #ffffff" x="-197.395" y="376.142" width="156.3" height="36"/>
    <rect style="fill: none; fill-opacity:0; stroke-width: 2; stroke: #000000" x="-197.395" y="376.142" width="156.3" height="36"/>
    <text font-size="12.8" style="fill: #000000;text-anchor:start;font-family:monospace;font-style:normal;font-weight:normal" x="-194.395" y="390.142">+Pawn(owner:Player)</text>
    <text font-size="12.8" style="fill: #000000;text-anchor:start;font-family:monospace;font-style:normal;font-weight:normal" x="-194.395" y="406.142">+getOwner(): Player</text>
  </g>
  <g>
    <rect style="fill: #ffffff" x="426.372" y="229.53" width="318" height="28"/>
    <rect style="fill: none; fill-opacity:0; stroke-width: 2; stroke: #000000" x="426.372" y="229.53" width="318" height="28"/>
    <text font-size="16" style="fill: #000000;text-anchor:middle;font-family:sans-serif;font-style:normal;font-weight:700" x="585.372" y="248.53">Player</text>
    <rect style="fill: #ffffff" x="426.372" y="257.53" width="318" height="36"/>
    <rect style="fill: none; fill-opacity:0; stroke-width: 2; stroke: #000000" x="426.372" y="257.53" width="318" height="36"/>
    <text font-size="12.8" style="fill: #000000;text-anchor:start;font-family:monospace;font-style:normal;font-weight:normal" x="429.372" y="271.53">-initialZones: Set&lt;BoardZone&gt;</text>
    <text font-size="12.8" style="fill: #000000;text-anchor:start;font-family:monospace;font-style:normal;font-weight:normal" x="429.372" y="287.53">-name: String</text>
    <rect style="fill: #ffffff" x="426.372" y="293.53" width="318" height="84"/>
    <rect style="fill: none; fill-opacity:0; stroke-width: 2; stroke: #000000" x="426.372" y="293.53" width="318" height="84"/>
    <text font-size="12.8" style="fill: #000000;text-anchor:start;font-family:monospace;font-style:normal;font-weight:normal" x="429.372" y="307.53">+Player(name:String)</text>
    <text font-size="12.8" style="fill: #000000;text-anchor:start;font-family:monospace;font-style:normal;font-weight:normal" x="429.372" y="323.53">+getName(): String</text>
    <text font-size="12.8" style="fill: #000000;text-anchor:start;font-family:monospace;font-style:normal;font-weight:normal" x="429.372" y="339.53">+hasWon(): boolean</text>
    <text font-size="12.8" style="fill: #000000;text-anchor:start;font-family:monospace;font-style:normal;font-weight:normal" x="429.372" y="355.53">+addInitialZone(zone:BoardZone): boolean</text>
    <text font-size="12.8" style="fill: #000000;text-anchor:start;font-family:monospace;font-style:normal;font-weight:normal" x="429.372" y="371.53">+getInitalZones(): Set&lt;BoardZone&gt;</text>
  </g>
  <g>
    <rect style="fill: #ffffff" x="51.7974" y="-201.182" width="264.1" height="28"/>
    <rect style="fill: none; fill-opacity:0; stroke-width: 2; stroke: #000000" x="51.7974" y="-201.182" width="264.1" height="28"/>
    <text font-size="16" style="fill: #000000;text-anchor:middle;font-family:sans-serif;font-style:normal;font-weight:700" x="183.847" y="-182.182">Game</text>
    <rect style="fill: #ffffff" x="51.7974" y="-173.182" width="264.1" height="84"/>
    <rect style="fill: none; fill-opacity:0; stroke-width: 2; stroke: #000000" x="51.7974" y="-173.182" width="264.1" height="84"/>
    <text font-size="12.8" style="fill: #000000;text-anchor:start;font-family:monospace;font-style:normal;font-weight:normal" x="54.7974" y="-159.182">-currentPlayer: Player</text>
    <text font-size="12.8" style="fill: #000000;text-anchor:start;font-family:monospace;font-style:normal;font-weight:normal" x="54.7974" y="-143.182">-players: List&lt;Player&gt;</text>
    <text font-size="12.8" style="fill: #000000;text-anchor:start;font-family:monospace;font-style:normal;font-weight:normal" x="54.7974" y="-127.182">-teams: Set&lt;Team&gt;</text>
    <text font-size="12.8" style="fill: #000000;text-anchor:start;font-family:monospace;font-style:normal;font-weight:normal" x="54.7974" y="-111.182">-turnCount: int</text>
    <text font-size="12.8" style="fill: #000000;text-anchor:start;font-family:monospace;font-style:normal;font-weight:normal" x="54.7974" y="-95.182">-board: AbstractBoard</text>
    <rect style="fill: #ffffff" x="51.7974" y="-89.182" width="264.1" height="164"/>
    <rect style="fill: none; fill-opacity:0; stroke-width: 2; stroke: #000000" x="51.7974" y="-89.182" width="264.1" height="164"/>
    <text font-size="12.8" style="fill: #000000;text-anchor:start;font-family:monospace;font-style:normal;font-weight:normal" x="54.7974" y="-75.182">+Game(board:AbstractBoard)</text>
    <text font-size="12.8" style="fill: #000000;text-anchor:start;font-family:monospace;font-style:normal;font-weight:normal" x="54.7974" y="-59.182">+nextTurn(): void</text>
    <text font-size="12.8" style="fill: #000000;text-anchor:start;font-family:monospace;font-style:normal;font-weight:normal" x="54.7974" y="-43.182">+isGameOver(): boolean</text>
    <text font-size="12.8" style="fill: #000000;text-anchor:start;font-family:monospace;font-style:normal;font-weight:normal" x="54.7974" y="-27.182">+getWinner(): Team</text>
    <text font-size="12.8" style="fill: #000000;text-anchor:start;font-family:monospace;font-style:normal;font-weight:normal" x="54.7974" y="-11.182">+getCurrentPlayer(): Player</text>
    <text font-size="12.8" style="fill: #000000;text-anchor:start;font-family:monospace;font-style:normal;font-weight:normal" x="54.7974" y="4.818">+getBoard(): AbstractBoard</text>
    <text font-size="12.8" style="fill: #000000;text-anchor:start;font-family:monospace;font-style:normal;font-weight:normal" x="54.7974" y="20.818">+getPlayers(): Collection&lt;Player&gt;</text>
    <text font-size="12.8" style="fill: #000000;text-anchor:start;font-family:monospace;font-style:normal;font-weight:normal" x="54.7974" y="36.818">+getTeams(): Set&lt;Team&gt;</text>
    <text font-size="12.8" style="fill: #000000;text-anchor:start;font-family:monospace;font-style:normal;font-weight:normal" x="54.7974" y="52.818">+addTeam(team:Team): void</text>
    <text font-size="12.8" style="fill: #000000;text-anchor:start;font-family:monospace;font-style:normal;font-weight:normal" x="54.7974" y="68.818">+getTurnCount(): int</text>
  </g>
  <g>
    <path style="fill: none; fill-opacity:0; stroke-width: 2; stroke: #000000" d="M 43.6459 -63.182 C 11.3593,-63.182 -237.82,-82.3279 -244.146,-25.3281"/>
    <polygon style="fill: #000000" points="50.8175,-63.182 45.8175,-58.182 40.8175,-63.182 45.8175,-68.182 "/>
    <polygon style="fill: none; fill-opacity:0; stroke-width: 2; stroke: #000000" points="50.8175,-63.182 45.8175,-58.182 40.8175,-63.182 45.8175,-68.182 "/>
  </g>
  <g>
    <path style="fill: none; fill-opacity:0; stroke-width: 2; stroke: #000000" d="M 588.711 385.669 C 592.146,470.153 97.5071,369.591 -40.0957,369.941"/>
    <polygon style="fill: #ffffff" points="588.42,378.503 593.619,383.296 588.826,388.495 583.627,383.702 "/>
    <polygon style="fill: none; fill-opacity:0; stroke-width: 2; stroke: #000000" points="588.42,378.503 593.619,383.296 588.826,388.495 583.627,383.702 "/>
  </g>
  <g>
    <path style="fill: none; fill-opacity:0; stroke-width: 2; stroke: #000000" d="M -197.432 146.757 C -104.38,294.971 -177.831,209.708 -134.942,327.156"/>
    <polygon style="fill: #000000" points="-201.245,140.683 -194.352,142.259 -195.928,149.153 -202.821,147.577 "/>
    <polygon style="fill: none; fill-opacity:0; stroke-width: 2; stroke: #000000" points="-201.245,140.683 -194.352,142.259 -195.928,149.153 -202.821,147.577 "/>
  </g>
  <g>
    <path style="fill: none; fill-opacity:0; stroke-width: 2; stroke: #000000" d="M 352.83 218.769 C 395.044,218.769 553.614,174.676 566.886,228.526"/>
    <polygon style="fill: #000000" points="345.658,218.769 350.658,213.769 355.658,218.769 350.658,223.769 "/>
    <polygon style="fill: none; fill-opacity:0; stroke-width: 2; stroke: #000000" points="345.658,218.769 350.658,213.769 355.658,218.769 350.658,223.769 "/>
  </g>
  <g>
    <rect style="fill: #ffffff" x="-942.248" y="59.2344" width="202.5" height="28"/>
    <rect style="fill: none; fill-opacity:0; stroke-width: 2; stroke: #000000" x="-942.248" y="59.2344" width="202.5" height="28"/>
    <text font-size="16" style="fill: #000000;text-anchor:middle;font-family:sans-serif;font-style:normal;font-weight:700" x="-840.998" y="78.2344">Square</text>
    <rect style="fill: #ffffff" x="-942.248" y="87.2344" width="202.5" height="20"/>
    <rect style="fill: none; fill-opacity:0; stroke-width: 2; stroke: #000000" x="-942.248" y="87.2344" width="202.5" height="20"/>
    <text font-size="12.8" style="fill: #000000;text-anchor:start;font-family:monospace;font-style:normal;font-weight:normal" x="-939.248" y="101.234">-pawn: Pawn</text>
    <rect style="fill: #ffffff" x="-942.248" y="107.234" width="202.5" height="84"/>
    <rect style="fill: none; fill-opacity:0; stroke-width: 2; stroke: #000000" x="-942.248" y="107.234" width="202.5" height="84"/>
    <text font-size="12.8" style="fill: #000000;text-anchor:start;font-family:monospace;font-style:normal;font-weight:normal" x="-939.248" y="121.234">+Square()</text>
    <text font-size="12.8" style="fill: #000000;text-anchor:start;font-family:monospace;font-style:normal;font-weight:normal" x="-939.248" y="137.234">+Square(pawn:Pawn)</text>
    <text font-size="12.8" style="fill: #000000;text-anchor:start;font-family:monospace;font-style:normal;font-weight:normal" x="-939.248" y="153.234">+getPawn(): Pawn</text>
    <text font-size="12.8" style="fill: #000000;text-anchor:start;font-family:monospace;font-style:normal;font-weight:normal" x="-939.248" y="169.234">+setPawn(pawn:Pawn): void</text>
    <text font-size="12.8" style="fill: #000000;text-anchor:start;font-family:monospace;font-style:normal;font-weight:normal" x="-939.248" y="185.234">+isFree(): boolean</text>
  </g>
  <g>
    <path style="fill: none; fill-opacity:0; stroke-width: 2; stroke: #000000" d="M -485.975 57.6763 C -612.875,57.6763 -604.674,125.234 -738.746,125.234"/>
    <polygon style="fill: #000000" points="-478.803,57.6763 -483.803,62.6763 -488.803,57.6763 -483.803,52.6763 "/>
    <polygon style="fill: none; fill-opacity:0; stroke-width: 2; stroke: #000000" points="-478.803,57.6763 -483.803,62.6763 -488.803,57.6763 -483.803,52.6763 "/>
  </g>
  <g>
    <path style="fill: none; fill-opacity:0; stroke-width: 2; stroke: #000000" d="M -842.023 199.398 C -844.88,406.129 -432.603,432.292 -198.391,385.84"/>
    <polygon style="fill: #ffffff" points="-841.924,192.227 -836.993,197.296 -842.062,202.226 -846.992,197.158 "/>
    <polygon style="fill: none; fill-opacity:0; stroke-width: 2; stroke: #000000" points="-841.924,192.227 -836.993,197.296 -842.062,202.226 -846.992,197.158 "/>
  </g>
  <g>
    <rect style="fill: #00ff00" x="-311.67" y="-479.228" width="130.7" height="28"/>
    <rect style="fill: none; fill-opacity:0; stroke-width: 2; stroke: #000000" x="-311.67" y="-479.228" width="130.7" height="28"/>
    <text font-size="16" style="fill: #000000;text-anchor:middle;font-family:sans-serif;font-style:normal;font-weight:700" x="-246.32" y="-460.228">Le contrôleur</text>
  </g>
  <g>
    <path style="fill: none; fill-opacity:0; stroke-width: 2; stroke: #00ff00" d="M -246.204 -450.234 C -245.69,-383.54 201.439,-267.848 196.178,-206.643"/>
    <polyline style="fill: none; fill-opacity:0; stroke-width: 2; stroke: #00ff00" points="191.861,-214.807 195.987,-204.416 201.825,-213.951 "/>
  </g>
  <path style="fill: none; fill-opacity:0; stroke-width: 2; stroke: #00ff00" d="M -246.745 -450.224 C -249.161,-364.974 -242.327,-65.2517 -245.911,-25.3133"/>
  <g>
    <rect style="fill: #00ff00" x="-200.072" y="-414.116" width="164.85" height="14.9"/>
    <text font-size="12.8" style="fill: #000000;text-anchor:start;font-family:sans-serif;font-style:normal;font-weight:normal" x="-200.072" y="-402.216">
      <tspan x="-200.072" y="-402.216">1. Récupère joueur actuel</tspan>
    </text>
  </g>
  <g>
    <rect style="fill: #00ff00" x="-360.994" y="-338.62" width="229.35" height="46.9"/>
    <text font-size="12.8" style="fill: #000000;text-anchor:start;font-family:sans-serif;font-style:normal;font-weight:normal" x="-360.994" y="-326.72">
      <tspan x="-360.994" y="-326.72">2. Vérifier le mouvement</tspan>
      <tspan x="-360.994" y="-310.72">3. Effectuer le mouvement (ou non)</tspan>
      <tspan x="-360.994" y="-294.72">    --&gt; màj du modèle</tspan>
    </text>
  </g>
  <g>
    <rect style="fill: #ffffff" x="-710.494" y="-212.438" width="271.8" height="28"/>
    <rect style="fill: none; fill-opacity:0; stroke-width: 2; stroke: #000000" x="-710.494" y="-212.438" width="271.8" height="28"/>
    <text font-size="16" style="fill: #000000;text-anchor:middle;font-family:sans-serif;font-style:normal;font-weight:700" x="-574.594" y="-193.438">BoardZone</text>
    <rect style="fill: #ffffff" x="-710.494" y="-184.438" width="271.8" height="36"/>
    <rect style="fill: none; fill-opacity:0; stroke-width: 2; stroke: #000000" x="-710.494" y="-184.438" width="271.8" height="36"/>
    <text font-size="12.8" style="fill: #000000;text-anchor:start;font-family:monospace;font-style:normal;font-weight:normal" x="-707.494" y="-170.438">-squares: Set&lt;Squares&gt;</text>
    <text font-size="12.8" style="fill: #000000;text-anchor:start;font-family:monospace;font-style:normal;font-weight:normal" x="-707.494" y="-154.438">-opponentZone: BoardZone</text>
    <rect style="fill: #ffffff" x="-710.494" y="-148.438" width="271.8" height="84"/>
    <rect style="fill: none; fill-opacity:0; stroke-width: 2; stroke: #000000" x="-710.494" y="-148.438" width="271.8" height="84"/>
    <text font-size="12.8" style="fill: #000000;text-anchor:start;font-family:monospace;font-style:normal;font-weight:normal" x="-707.494" y="-134.438">+BoardZone()</text>
    <text font-size="12.8" style="fill: #000000;text-anchor:start;font-family:monospace;font-style:normal;font-weight:normal" x="-707.494" y="-118.438">+addSquare(square:Square): boolean</text>
    <text font-size="12.8" style="fill: #000000;text-anchor:start;font-family:monospace;font-style:normal;font-weight:normal" x="-707.494" y="-102.438">+getOpponentZone(): BoardZone</text>
    <text font-size="12.8" style="fill: #000000;text-anchor:start;font-family:monospace;font-style:normal;font-weight:normal" x="-707.494" y="-86.4383">+setOpponentZone(zone:BoardZone)</text>
    <text font-size="12.8" style="fill: #000000;text-anchor:start;font-family:monospace;font-style:normal;font-weight:normal" x="-707.494" y="-70.4383">+isFull(player:Player): boolean</text>
  </g>
  <g>
    <path style="fill: none; fill-opacity:0; stroke-width: 2; stroke: #000000" d="M -718.671 -138.438 C -747.915,-138.438 -842.499,-83.7066 -841.479,58.2392"/>
    <polygon style="fill: #ffffff" points="-711.499,-138.438 -716.499,-133.438 -721.499,-138.438 -716.499,-143.438 "/>
    <polygon style="fill: none; fill-opacity:0; stroke-width: 2; stroke: #000000" points="-711.499,-138.438 -716.499,-133.438 -721.499,-138.438 -716.499,-143.438 "/>
  </g>
  <g>
    <path style="fill: none; fill-opacity:0; stroke-width: 2; stroke: #000000" d="M -485.972 47.0377 C -544.01,44.3834 -576.5,6.51286 -575.58,-63.4421"/>
    <polygon style="fill: #ffffff" points="-478.808,47.3654 -484.032,52.1317 -488.798,46.9085 -483.575,42.1421 "/>
    <polygon style="fill: none; fill-opacity:0; stroke-width: 2; stroke: #000000" points="-478.808,47.3654 -484.032,52.1317 -488.798,46.9085 -483.575,42.1421 "/>
  </g>
  <g>
    <rect style="fill: #ffff00" x="-1013.22" y="-379.414" width="181.65" height="18.95"/>
    <text font-size="16.2447" style="fill: #000000;text-anchor:start;font-family:sans-serif;font-style:normal;font-weight:normal" x="-1013.22" y="-364.314">
      <tspan x="-1013.22" y="-364.314">1. Création du plateau</tspan>
    </text>
  </g>
  <text font-size="12.8" style="fill: #000000;text-anchor:start;font-family:sans-serif;font-style:normal;font-weight:normal" x="-840.684" y="-375.626">
    <tspan x="-840.684" y="-375.626"></tspan>
  </text>
  <g>
    <rect style="fill: #ffff00" x="-1078.68" y="-291.784" width="309.6" height="39.2559"/>
    <text font-size="16.2447" style="fill: #000000;text-anchor:start;font-family:sans-serif;font-style:normal;font-weight:normal" x="-1078.68" y="-276.684">
      <tspan x="-1078.68" y="-276.684">3. Assignation des équipes au plateau</tspan>
      <tspan x="-1078.68" y="-256.378">    --&gt; Dispose les joueurs face à face</tspan>
    </text>
  </g>
  <g>
    <rect style="fill: #ffff00" x="-1210.82" y="-350.09" width="654.65" height="39.2559"/>
    <text font-size="16.2447" style="fill: #000000;text-anchor:start;font-family:sans-serif;font-style:normal;font-weight:normal" x="-1210.82" y="-334.99">
      <tspan x="-1210.82" y="-334.99">2. Création des joueurs et organisation en équipes équitables, 1 ou 2 par équipe</tspan>
      <tspan x="-1210.82" y="-314.684">(le nombre de joueurs doit être parmi ceux autorisés par le plateau)</tspan>
    </text>
  </g>
  <g>
    <rect style="fill: #ffffff" x="72.851" y="128.769" width="271.8" height="28"/>
    <rect style="fill: none; fill-opacity:0; stroke-width: 2; stroke: #000000" x="72.851" y="128.769" width="271.8" height="28"/>
    <text font-size="16" style="fill: #000000;text-anchor:middle;font-family:sans-serif;font-style:normal;font-weight:700" x="208.751" y="147.769">Team</text>
    <rect style="fill: #ffffff" x="72.851" y="156.769" width="271.8" height="36"/>
    <rect style="fill: none; fill-opacity:0; stroke-width: 2; stroke: #000000" x="72.851" y="156.769" width="271.8" height="36"/>
    <text font-size="12.8" style="fill: #000000;text-anchor:start;font-family:monospace;font-style:normal;font-weight:normal" x="75.851" y="170.769">-players: Set&lt;Player&gt;</text>
    <text font-size="12.8" style="fill: #000000;text-anchor:start;font-family:monospace;font-style:normal;font-weight:normal" x="75.851" y="186.769">-opponentTeam: Team</text>
    <rect style="fill: #ffffff" x="72.851" y="192.769" width="271.8" height="116"/>
    <rect style="fill: none; fill-opacity:0; stroke-width: 2; stroke: #000000" x="72.851" y="192.769" width="271.8" height="116"/>
    <text font-size="12.8" style="fill: #000000;text-anchor:start;font-family:monospace;font-style:normal;font-weight:normal" x="75.851" y="206.769">+Team()</text>
    <text font-size="12.8" style="fill: #000000;text-anchor:start;font-family:monospace;font-style:normal;font-weight:normal" x="75.851" y="222.769">+Team(players:Set&lt;Player&gt;)</text>
    <text font-size="12.8" style="fill: #000000;text-anchor:start;font-family:monospace;font-style:normal;font-weight:normal" x="75.851" y="238.769">+addPlayer(player:Player): boolean</text>
    <text font-size="12.8" style="fill: #000000;text-anchor:start;font-family:monospace;font-style:normal;font-weight:normal" x="75.851" y="254.769">+getPlayers(): Set&lt;Player&gt;</text>
    <text font-size="12.8" style="fill: #000000;text-anchor:start;font-family:monospace;font-style:normal;font-weight:normal" x="75.851" y="270.769">+setOpponentTeam(team:Team): void</text>
    <text font-size="12.8" style="fill: #000000;text-anchor:start;font-family:monospace;font-style:normal;font-weight:normal" x="75.851" y="286.769">+getOpponentTeam(): Team</text>
    <text font-size="12.8" style="fill: #000000;text-anchor:start;font-family:monospace;font-style:normal;font-weight:normal" x="75.851" y="302.769">+hasWon(): boolean</text>
  </g>
  <g>
    <path style="fill: none; fill-opacity:0; stroke-width: 2; stroke: #000000" d="M 202.461 127.761 C 200.525,99.7487 223.552,143.211 211.941,82.8536"/>
    <polygon style="fill: #000000" points="210.586,75.8111 216.441,79.7766 212.475,85.6311 206.621,81.6657 "/>
    <polygon style="fill: none; fill-opacity:0; stroke-width: 2; stroke: #000000" points="210.586,75.8111 216.441,79.7766 212.475,85.6311 206.621,81.6657 "/>
  </g>
  <g>
    <path style="fill: none; fill-opacity:0; stroke-width: 2; stroke: #000000" d="M 71.8512 218.769 C -75.1488,218.769 119.04,57.6763 -20.7909,57.6763"/>
    <polygon style="fill: #ffffff" points="-27.9625,57.6763 -22.9625,52.6763 -17.9625,57.6763 -22.9625,62.6763 "/>
    <polygon style="fill: none; fill-opacity:0; stroke-width: 2; stroke: #000000" points="-27.9625,57.6763 -22.9625,52.6763 -17.9625,57.6763 -22.9625,62.6763 "/>
  </g>
  <g>
    <rect style="fill: #0042ff" x="-1318.46" y="-498.934" width="866.85" height="60.9996"/>
    <text font-size="16.6398" style="fill: #000000;text-anchor:start;font-family:sans-serif;font-style:normal;font-weight:normal" x="-1318.46" y="-483.484">
      <tspan x="-1318.46" y="-483.484">- Chaque zone admet une zone opposée</tspan>
      <tspan x="-1318.46" y="-462.684">- Chaque joueur possède un ensemble de zone de départ pour ses pions</tspan>
      <tspan x="-1318.46" y="-441.884">- Chaque joueur possède canoniquement un ensemble de zones adverses qu'il doit emplir de ses pions </tspan>
    </text>
  </g>
  <g>
    <rect style="fill: #ffffff" x="-618.862" y="205.618" width="371.9" height="28"/>
    <rect style="fill: none; fill-opacity:0; stroke-width: 2; stroke: #000000" x="-618.862" y="205.618" width="371.9" height="28"/>
    <text font-size="16" style="fill: #000000;text-anchor:middle;font-family:sans-serif;font-style:normal;font-weight:700" x="-432.912" y="224.618">DefaultBoard</text>
    <rect style="fill: #ffffff" x="-618.862" y="233.618" width="371.9" height="36"/>
    <rect style="fill: none; fill-opacity:0; stroke-width: 2; stroke: #000000" x="-618.862" y="233.618" width="371.9" height="36"/>
    <text font-size="12.8" style="fill: #000000;text-anchor:start;font-family:monospace;font-style:normal;font-weight:normal" x="-615.862" y="247.618">-BOARD_WIDTH: int = 13</text>
    <line style="fill: none; fill-opacity:0; stroke-width: 1; stroke: #000000" x1="-615.862" y1="253.218" x2="-446.462" y2="253.218"/>
    <text font-size="12.8" style="fill: #000000;text-anchor:start;font-family:monospace;font-style:normal;font-weight:normal" x="-615.862" y="263.618">-BOARD_HEIGHT: int = 17</text>
    <line style="fill: none; fill-opacity:0; stroke-width: 1; stroke: #000000" x1="-615.862" y1="269.218" x2="-438.762" y2="269.218"/>
    <rect style="fill: #ffffff" x="-618.862" y="269.618" width="371.9" height="68"/>
    <rect style="fill: none; fill-opacity:0; stroke-width: 2; stroke: #000000" x="-618.862" y="269.618" width="371.9" height="68"/>
    <text font-size="12.8" style="fill: #000000;text-anchor:start;font-family:monospace;font-style:normal;font-weight:normal" x="-615.862" y="283.618">+DefaultBoard()</text>
    <text font-size="12.8" style="fill: #000000;text-anchor:start;font-family:monospace;font-style:normal;font-weight:normal" x="-615.862" y="299.618">+getPossiblePlayerNumbers(): SortedSet&lt;Integer&gt;</text>
    <text font-size="12.8" style="fill: #000000;text-anchor:start;font-family:monospace;font-style:normal;font-weight:normal" x="-615.862" y="315.618">+dispatchZones(teams:Set&lt;Team&gt;): void</text>
    <text font-size="12.8" style="fill: #000000;text-anchor:start;font-family:monospace;font-style:normal;font-weight:normal" x="-615.862" y="331.618">-makeBoard(): Square[][]</text>
    <line style="fill: none; fill-opacity:0; stroke-width: 1; stroke: #000000" x1="-615.862" y1="333.218" x2="-431.062" y2="333.218"/>
  </g>
  <g>
    <polyline style="fill: none; fill-opacity:0; stroke-width: 2; stroke: #000000" points="-253.358,158.917 -253.358,180.645 -432.912,180.645 -432.912,204.61 "/>
    <polygon style="fill: #ffffff" points="-245.358,158.917 -253.358,142.917 -261.358,158.917 "/>
    <polygon style="fill: none; fill-opacity:0; stroke-width: 2; stroke: #000000" points="-245.358,158.917 -253.358,142.917 -261.358,158.917 "/>
  </g>
  <g>
    <rect style="fill: #ffffff" x="478.002" y="-360.765" width="210.2" height="28"/>
    <rect style="fill: none; fill-opacity:0; stroke-width: 2; stroke: #000000" x="478.002" y="-360.765" width="210.2" height="28"/>
    <text font-size="16" style="fill: #000000;text-anchor:middle;font-family:sans-serif;font-style:normal;font-weight:700" x="583.102" y="-341.765">Main</text>
    <rect style="fill: #ffffff" x="478.002" y="-332.765" width="210.2" height="20"/>
    <rect style="fill: none; fill-opacity:0; stroke-width: 2; stroke: #000000" x="478.002" y="-332.765" width="210.2" height="20"/>
    <text font-size="12.8" style="fill: #000000;text-anchor:start;font-family:monospace;font-style:normal;font-weight:normal" x="481.002" y="-318.765">+main(args:String[]): void</text>
    <line style="fill: none; fill-opacity:0; stroke-width: 1; stroke: #000000" x1="481.002" y1="-317.165" x2="681.202" y2="-317.165"/>
  </g>
  <g>
    <rect style="fill: #ffffff" x="-561.507" y="447.583" width="418.1" height="28"/>
    <rect style="fill: none; fill-opacity:0; stroke-width: 2; stroke: #000000" x="-561.507" y="447.583" width="418.1" height="28"/>
    <text font-size="16" style="fill: #000000;text-anchor:middle;font-family:sans-serif;font-style:normal;font-weight:700" x="-352.457" y="466.583">Coordinates</text>
    <rect style="fill: #ffffff" x="-561.507" y="475.583" width="418.1" height="36"/>
    <rect style="fill: none; fill-opacity:0; stroke-width: 2; stroke: #000000" x="-561.507" y="475.583" width="418.1" height="36"/>
    <text font-size="12.8" style="fill: #000000;text-anchor:start;font-family:monospace;font-style:normal;font-weight:normal" x="-558.507" y="489.583">+x: int</text>
    <text font-size="12.8" style="fill: #000000;text-anchor:start;font-family:monospace;font-style:normal;font-weight:normal" x="-558.507" y="505.583">+y: int</text>
    <rect style="fill: #ffffff" x="-561.507" y="511.583" width="418.1" height="100"/>
    <rect style="fill: none; fill-opacity:0; stroke-width: 2; stroke: #000000" x="-561.507" y="511.583" width="418.1" height="100"/>
    <text font-size="12.8" style="fill: #000000;text-anchor:start;font-family:monospace;font-style:normal;font-weight:normal" x="-558.507" y="525.583">+Coordinates(x:int,y:int)</text>
    <text font-size="12.8" style="fill: #000000;text-anchor:start;font-family:monospace;font-style:normal;font-weight:normal" x="-558.507" y="541.583">+hashCode(): int</text>
    <text font-size="12.8" style="fill: #000000;text-anchor:start;font-family:monospace;font-style:normal;font-weight:normal" x="-558.507" y="557.583">+equals(obj:Coordinates): boolean</text>
    <text font-size="12.8" style="fill: #000000;text-anchor:start;font-family:monospace;font-style:normal;font-weight:normal" x="-558.507" y="573.583">+isAdjacentTo(coord:Coordinates): boolean</text>
    <text font-size="12.8" style="fill: #000000;text-anchor:start;font-family:monospace;font-style:normal;font-weight:normal" x="-558.507" y="589.583">+getMiddleCoordinates(coord:Coordinates): Coordinates</text>
    <text font-size="12.8" style="fill: #000000;text-anchor:start;font-family:monospace;font-style:normal;font-weight:normal" x="-558.507" y="605.583">+toString(): String</text>
  </g>
  <g>
    <rect style="fill: #ffffff" x="859.957" y="-227.618" width="537.254" height="877.931"/>
    <rect style="fill: none; fill-opacity:0; stroke-width: 2; stroke: #000000" x="859.957" y="-227.618" width="537.254" height="877.931"/>
    <rect style="fill: #ffffff" x="859.957" y="-247.618" width="40" height="20"/>
    <rect style="fill: none; fill-opacity:0; stroke-width: 2; stroke: #000000" x="859.957" y="-247.618" width="40" height="20"/>
    <text font-size="12.7998" style="fill: #000000;text-anchor:start;font-family:monospace;font-style:normal;font-weight:normal" x="861.957" y="-232.618">view</text>
  </g>
  <g>
    <rect style="fill: #ffffff" x="923.645" y="-186.532" width="81.8" height="28"/>
    <rect style="fill: none; fill-opacity:0; stroke-width: 2; stroke: #000000" x="923.645" y="-186.532" width="81.8" height="28"/>
    <text font-size="16" style="fill: #000000;text-anchor:middle;font-family:sans-serif;font-style:normal;font-weight:700" x="964.545" y="-167.532">Window</text>
    <rect style="fill: #ffffff" x="923.645" y="-158.532" width="81.8" height="8"/>
    <rect style="fill: none; fill-opacity:0; stroke-width: 2; stroke: #000000" x="923.645" y="-158.532" width="81.8" height="8"/>
    <rect style="fill: #ffffff" x="923.645" y="-150.532" width="81.8" height="8"/>
    <rect style="fill: none; fill-opacity:0; stroke-width: 2; stroke: #000000" x="923.645" y="-150.532" width="81.8" height="8"/>
  </g>
  <g>
    <rect style="fill: #ffffff" x="925.807" y="-108.686" width="423.831" height="214.077"/>
    <rect style="fill: none; fill-opacity:0; stroke-width: 2; stroke: #000000" x="925.807" y="-108.686" width="423.831" height="214.077"/>
    <rect style="fill: #ffffff" x="925.807" y="-128.686" width="73.3" height="20"/>
    <rect style="fill: none; fill-opacity:0; stroke-width: 2; stroke: #000000" x="925.807" y="-128.686" width="73.3" height="20"/>
    <text font-size="12.7998" style="fill: #000000;text-anchor:start;font-family:monospace;font-style:normal;font-weight:normal" x="927.807" y="-113.686">gamepanel</text>
  </g>
  <g>
    <rect style="fill: #ffffff" x="927.97" y="302.168" width="220.564" height="201.102"/>
    <rect style="fill: none; fill-opacity:0; stroke-width: 2; stroke: #000000" x="927.97" y="302.168" width="220.564" height="201.102"/>
    <rect style="fill: #ffffff" x="927.97" y="282.168" width="73.3" height="20"/>
    <rect style="fill: none; fill-opacity:0; stroke-width: 2; stroke: #000000" x="927.97" y="282.168" width="73.3" height="20"/>
    <text font-size="12.7998" style="fill: #000000;text-anchor:start;font-family:monospace;font-style:normal;font-weight:normal" x="929.97" y="297.168">roompanel</text>
  </g>
  <g>
    <rect style="fill: #ffffff" x="925.807" y="152.963" width="335.173" height="103.795"/>
    <rect style="fill: none; fill-opacity:0; stroke-width: 2; stroke: #000000" x="925.807" y="152.963" width="335.173" height="103.795"/>
    <rect style="fill: #ffffff" x="925.807" y="132.963" width="73.3" height="20"/>
    <rect style="fill: none; fill-opacity:0; stroke-width: 2; stroke: #000000" x="925.807" y="132.963" width="73.3" height="20"/>
    <text font-size="12.7998" style="fill: #000000;text-anchor:start;font-family:monospace;font-style:normal;font-weight:normal" x="927.807" y="147.963">homepanel</text>
  </g>
  <g>
    <rect style="fill: #ffffff" x="973.38" y="-84.8999" width="111.3" height="44"/>
    <rect style="fill: none; fill-opacity:0; stroke-width: 2; stroke: #000000" x="973.38" y="-84.8999" width="111.3" height="44"/>
    <text font-size="12.8" style="fill: #000000;text-anchor:middle;font-family:monospace;font-style:normal;font-weight:normal" x="1029.03" y="-68.8999">&lt;&lt;JPanel&gt;&gt;</text>
    <text font-size="16" style="fill: #000000;text-anchor:middle;font-family:sans-serif;font-style:normal;font-weight:700" x="1029.03" y="-49.8999">GamePanel</text>
    <rect style="fill: #ffffff" x="973.38" y="-40.8999" width="111.3" height="8"/>
    <rect style="fill: none; fill-opacity:0; stroke-width: 2; stroke: #000000" x="973.38" y="-40.8999" width="111.3" height="8"/>
    <rect style="fill: #ffffff" x="973.38" y="-32.8999" width="111.3" height="8"/>
    <rect style="fill: none; fill-opacity:0; stroke-width: 2; stroke: #000000" x="973.38" y="-32.8999" width="111.3" height="8"/>
  </g>
  <g>
    <rect style="fill: #ffffff" x="999.329" y="181.074" width="111.75" height="28"/>
    <rect style="fill: none; fill-opacity:0; stroke-width: 2; stroke: #000000" x="999.329" y="181.074" width="111.75" height="28"/>
    <text font-size="16" style="fill: #000000;text-anchor:middle;font-family:sans-serif;font-style:normal;font-weight:700" x="1055.2" y="200.074">HomePanel</text>
    <rect style="fill: #ffffff" x="999.329" y="209.074" width="111.75" height="8"/>
    <rect style="fill: none; fill-opacity:0; stroke-width: 2; stroke: #000000" x="999.329" y="209.074" width="111.75" height="8"/>
    <rect style="fill: #ffffff" x="999.329" y="217.074" width="111.75" height="8"/>
    <rect style="fill: none; fill-opacity:0; stroke-width: 2; stroke: #000000" x="999.329" y="217.074" width="111.75" height="8"/>
  </g>
  <g>
    <rect style="fill: #ffffff" x="958.243" y="384.339" width="110.8" height="44"/>
    <rect style="fill: none; fill-opacity:0; stroke-width: 2; stroke: #000000" x="958.243" y="384.339" width="110.8" height="44"/>
    <text font-size="12.8" style="fill: #000000;text-anchor:middle;font-family:monospace;font-style:normal;font-weight:normal" x="1013.64" y="400.339">&lt;&lt;JPanel&gt;&gt;</text>
    <text font-size="16" style="fill: #000000;text-anchor:middle;font-family:sans-serif;font-style:normal;font-weight:700" x="1013.64" y="419.339">RoomPanel</text>
    <rect style="fill: #ffffff" x="958.243" y="428.339" width="110.8" height="8"/>
    <rect style="fill: none; fill-opacity:0; stroke-width: 2; stroke: #000000" x="958.243" y="428.339" width="110.8" height="8"/>
    <rect style="fill: #ffffff" x="958.243" y="436.339" width="110.8" height="8"/>
    <rect style="fill: none; fill-opacity:0; stroke-width: 2; stroke: #000000" x="958.243" y="436.339" width="110.8" height="8"/>
  </g>
  <g>
    <rect style="fill: #ffffff" x="1198.27" y="12.4077" width="112.3" height="44"/>
    <rect style="fill: none; fill-opacity:0; stroke-width: 2; stroke: #000000" x="1198.27" y="12.4077" width="112.3" height="44"/>
    <text font-size="12.8" style="fill: #000000;text-anchor:middle;font-family:monospace;font-style:normal;font-weight:normal" x="1254.42" y="28.4077">&lt;&lt;JPanel&gt;&gt;</text>
    <text font-size="16" style="fill: #000000;text-anchor:middle;font-family:sans-serif;font-style:normal;font-weight:700" x="1254.42" y="47.4077">ActionZone</text>
    <rect style="fill: #ffffff" x="1198.27" y="56.4077" width="112.3" height="8"/>
    <rect style="fill: none; fill-opacity:0; stroke-width: 2; stroke: #000000" x="1198.27" y="56.4077" width="112.3" height="8"/>
    <rect style="fill: #ffffff" x="1198.27" y="64.4077" width="112.3" height="8"/>
    <rect style="fill: none; fill-opacity:0; stroke-width: 2; stroke: #000000" x="1198.27" y="64.4077" width="112.3" height="8"/>
  </g>
  <g>
    <rect style="fill: #ffffff" x="1059.88" y="12.4077" width="101.65" height="44"/>
    <rect style="fill: none; fill-opacity:0; stroke-width: 2; stroke: #000000" x="1059.88" y="12.4077" width="101.65" height="44"/>
    <text font-size="12.8" style="fill: #000000;text-anchor:middle;font-family:monospace;font-style:normal;font-weight:normal" x="1110.7" y="28.4077">&lt;&lt;JPanel&gt;&gt;</text>
    <text font-size="16" style="fill: #000000;text-anchor:middle;font-family:sans-serif;font-style:normal;font-weight:700" x="1110.7" y="47.4077">DrawZone</text>
    <rect style="fill: #ffffff" x="1059.88" y="56.4077" width="101.65" height="8"/>
    <rect style="fill: none; fill-opacity:0; stroke-width: 2; stroke: #000000" x="1059.88" y="56.4077" width="101.65" height="8"/>
    <rect style="fill: #ffffff" x="1059.88" y="64.4077" width="101.65" height="8"/>
    <rect style="fill: none; fill-opacity:0; stroke-width: 2; stroke: #000000" x="1059.88" y="64.4077" width="101.65" height="8"/>
  </g>
  <g>
    <rect style="fill: #ffffff" x="940.944" y="5.9205" width="87" height="44"/>
    <rect style="fill: none; fill-opacity:0; stroke-width: 2; stroke: #000000" x="940.944" y="5.9205" width="87" height="44"/>
    <text font-size="12.8" style="fill: #000000;text-anchor:middle;font-family:monospace;font-style:normal;font-weight:normal" x="984.444" y="21.9205">&lt;&lt;JPanel&gt;&gt;</text>
    <text font-size="16" style="fill: #000000;text-anchor:middle;font-family:sans-serif;font-style:normal;font-weight:700" x="984.444" y="40.9205">InfoBar</text>
    <rect style="fill: #ffffff" x="940.944" y="49.9205" width="87" height="8"/>
    <rect style="fill: none; fill-opacity:0; stroke-width: 2; stroke: #000000" x="940.944" y="49.9205" width="87" height="8"/>
    <rect style="fill: #ffffff" x="940.944" y="57.9205" width="87" height="8"/>
    <rect style="fill: none; fill-opacity:0; stroke-width: 2; stroke: #000000" x="940.944" y="57.9205" width="87" height="8"/>
  </g>
  <g>
    <rect style="fill: #ffffff" x="-105.384" y="739.512" width="722.369" height="404.169"/>
    <rect style="fill: none; fill-opacity:0; stroke-width: 2; stroke: #000000" x="-105.384" y="739.512" width="722.369" height="404.169"/>
    <rect style="fill: #ffffff" x="-105.384" y="719.512" width="81" height="20"/>
    <rect style="fill: none; fill-opacity:0; stroke-width: 2; stroke: #000000" x="-105.384" y="719.512" width="81" height="20"/>
    <text font-size="12.7998" style="fill: #000000;text-anchor:start;font-family:monospace;font-style:normal;font-weight:normal" x="-103.384" y="734.512">controller</text>
  </g>
  <g>
    <rect style="fill: #ffffff" x="164.153" y="986.95" width="151.9" height="28"/>
    <rect style="fill: none; fill-opacity:0; stroke-width: 2; stroke: #000000" x="164.153" y="986.95" width="151.9" height="28"/>
    <text font-size="16" style="fill: #000000;text-anchor:middle;font-family:sans-serif;font-style:normal;font-weight:700" x="240.103" y="1005.95">GameController</text>
    <rect style="fill: #ffffff" x="164.153" y="1014.95" width="151.9" height="8"/>
    <rect style="fill: none; fill-opacity:0; stroke-width: 2; stroke: #000000" x="164.153" y="1014.95" width="151.9" height="8"/>
    <rect style="fill: #ffffff" x="164.153" y="1022.95" width="151.9" height="8"/>
    <rect style="fill: none; fill-opacity:0; stroke-width: 2; stroke: #000000" x="164.153" y="1022.95" width="151.9" height="8"/>
  </g>
  <g>
    <rect style="fill: #ffffff" x="-85.9936" y="988.933" width="152.35" height="28"/>
    <rect style="fill: none; fill-opacity:0; stroke-width: 2; stroke: #000000" x="-85.9936" y="988.933" width="152.35" height="28"/>
    <text font-size="16" style="fill: #000000;text-anchor:middle;font-family:sans-serif;font-style:normal;font-weight:700" x="-9.81857" y="1007.93">HomeController</text>
    <rect style="fill: #ffffff" x="-85.9936" y="1016.93" width="152.35" height="8"/>
    <rect style="fill: none; fill-opacity:0; stroke-width: 2; stroke: #000000" x="-85.9936" y="1016.93" width="152.35" height="8"/>
    <rect style="fill: #ffffff" x="-85.9936" y="1024.93" width="152.35" height="8"/>
    <rect style="fill: none; fill-opacity:0; stroke-width: 2; stroke: #000000" x="-85.9936" y="1024.93" width="152.35" height="8"/>
  </g>
  <g>
    <rect style="fill: #ffffff" x="398.977" y="986.95" width="151.4" height="28"/>
    <rect style="fill: none; fill-opacity:0; stroke-width: 2; stroke: #000000" x="398.977" y="986.95" width="151.4" height="28"/>
    <text font-size="16" style="fill: #000000;text-anchor:middle;font-family:sans-serif;font-style:normal;font-weight:700" x="474.677" y="1005.95">RoomController</text>
    <rect style="fill: #ffffff" x="398.977" y="1014.95" width="151.4" height="8"/>
    <rect style="fill: none; fill-opacity:0; stroke-width: 2; stroke: #000000" x="398.977" y="1014.95" width="151.4" height="8"/>
    <rect style="fill: #ffffff" x="398.977" y="1022.95" width="151.4" height="8"/>
    <rect style="fill: none; fill-opacity:0; stroke-width: 2; stroke: #000000" x="398.977" y="1022.95" width="151.4" height="8"/>
  </g>
  <g>
    <rect style="fill: #ffffff" x="190.319" y="788.215" width="100.7" height="28"/>
    <rect style="fill: none; fill-opacity:0; stroke-width: 2; stroke: #000000" x="190.319" y="788.215" width="100.7" height="28"/>
    <text font-size="16" style="fill: #000000;text-anchor:middle;font-family:sans-serif;font-style:italic;font-weight:700" x="240.669" y="807.215">Controller</text>
    <rect style="fill: #ffffff" x="190.319" y="816.215" width="100.7" height="8"/>
    <rect style="fill: none; fill-opacity:0; stroke-width: 2; stroke: #000000" x="190.319" y="816.215" width="100.7" height="8"/>
    <rect style="fill: #ffffff" x="190.319" y="824.215" width="100.7" height="8"/>
    <rect style="fill: none; fill-opacity:0; stroke-width: 2; stroke: #000000" x="190.319" y="824.215" width="100.7" height="8"/>
  </g>
  <g>
    <polyline style="fill: none; fill-opacity:0; stroke-width: 2; stroke: #000000" points="240.669,851.456 240.669,917.582 240.103,917.582 240.103,985.944 "/>
    <polygon style="fill: #ffffff" points="248.669,851.456 240.669,835.456 232.669,851.456 "/>
    <polygon style="fill: none; fill-opacity:0; stroke-width: 2; stroke: #000000" points="248.669,851.456 240.669,835.456 232.669,851.456 "/>
  </g>
  <g>
    <polyline style="fill: none; fill-opacity:0; stroke-width: 2; stroke: #000000" points="171.077,810.215 120.339,810.215 120.339,1010.93 67.3658,1010.93 "/>
    <polygon style="fill: #ffffff" points="171.077,818.215 187.077,810.215 171.077,802.215 "/>
    <polygon style="fill: none; fill-opacity:0; stroke-width: 2; stroke: #000000" points="171.077,818.215 187.077,810.215 171.077,802.215 "/>
  </g>
  <g>
    <polyline style="fill: none; fill-opacity:0; stroke-width: 2; stroke: #000000" points="310.261,810.215 352.997,810.215 352.997,1008.95 397.968,1008.95 "/>
    <polygon style="fill: #ffffff" points="310.261,802.215 294.261,810.215 310.261,818.215 "/>
    <polygon style="fill: none; fill-opacity:0; stroke-width: 2; stroke: #000000" points="310.261,802.215 294.261,810.215 310.261,818.215 "/>
  </g>
</svg>
