<?xml version="1.0" encoding="UTF-8" standalone="no"?>
<!DOCTYPE svg PUBLIC "-//W3C//DTD SVG 1.0//EN" "http://www.w3.org/TR/2001/PR-SVG-20010719/DTD/svg10.dtd">
<svg width="137cm" height="81cm" viewBox="-1319 -499 2729 1606" xmlns="http://www.w3.org/2000/svg" xmlns:xlink="http://www.w3.org/1999/xlink">
  <g>
    <rect style="fill: #ffffff" x="-980.496" y="-232.092" width="1783.64" height="881.86"/>
    <rect style="fill: none; fill-opacity:0; stroke-width: 2; stroke: #000000" x="-980.496" y="-232.092" width="1783.64" height="881.86"/>
    <rect style="fill: #ffffff" x="-980.496" y="-252.092" width="42.5" height="20"/>
    <rect style="fill: none; fill-opacity:0; stroke-width: 2; stroke: #000000" x="-980.496" y="-252.092" width="42.5" height="20"/>
    <text font-size="12.7998" style="fill: #000000;text-anchor:start;font-family:monospace;font-style:normal;font-weight:normal" x="-978.496" y="-237.092">model</text>
  </g>
  <g>
    <rect style="fill: #ffffff" x="-477.808" y="-24.3238" width="448.9" height="28"/>
    <rect style="fill: none; fill-opacity:0; stroke-width: 2; stroke: #000000" x="-477.808" y="-24.3238" width="448.9" height="28"/>
    <text font-size="16" style="fill: #000000;text-anchor:middle;font-family:sans-serif;font-style:italic;font-weight:700" x="-253.358" y="-5.3238">AbstractBoard</text>
    <rect style="fill: #ffffff" x="-477.808" y="3.6762" width="448.9" height="20"/>
    <rect style="fill: none; fill-opacity:0; stroke-width: 2; stroke: #000000" x="-477.808" y="3.6762" width="448.9" height="20"/>
    <text font-size="12.8" style="fill: #000000;text-anchor:start;font-family:monospace;font-style:normal;font-weight:normal" x="-474.808" y="17.6762">#board: Square[][]</text>
    <rect style="fill: #ffffff" x="-477.808" y="23.6762" width="448.9" height="148"/>
    <rect style="fill: none; fill-opacity:0; stroke-width: 2; stroke: #000000" x="-477.808" y="23.6762" width="448.9" height="148"/>
    <text font-size="12.8" style="fill: #000000;text-anchor:start;font-family:monospace;font-style:normal;font-weight:normal" x="-474.808" y="37.6762">+AbstractBoard(board:Square[][])</text>
    <text font-size="12.8" style="fill: #000000;text-anchor:start;font-family:monospace;font-style:normal;font-weight:normal" x="-474.808" y="53.6762">+getPawn(coordinates:Coordinates): Pawn</text>
    <text font-size="12.8" style="fill: #000000;text-anchor:start;font-family:monospace;font-style:normal;font-weight:normal" x="-474.808" y="69.6762">+setPawn(pawn:Pawn,coordinates:Coordinates): void</text>
    <text font-size="12.8" style="fill: #000000;text-anchor:start;font-family:monospace;font-style:normal;font-weight:normal" x="-474.808" y="85.6762">+move(orig:Coordinates,dest:Coordinates): void</text>
    <text font-size="12.8" style="fill: #000000;text-anchor:start;font-family:monospace;font-style:normal;font-weight:normal" x="-474.808" y="101.676">+checkMove(path:List&lt;Coordinates&gt;,player:Player): boolean</text>
    <text font-size="12.8" style="fill: #000000;text-anchor:start;font-family:monospace;font-style:normal;font-weight:normal" x="-474.808" y="117.676">+getWidth(): int</text>
    <text font-size="12.8" style="fill: #000000;text-anchor:start;font-family:monospace;font-style:normal;font-weight:normal" x="-474.808" y="133.676">+getHeight(): int</text>
    <text font-size="12.8" style="fill: #000000;text-anchor:start;font-family:monospace;font-style:italic;font-weight:700" x="-474.808" y="149.676">+getPossiblePlayerNumbers(): SortedSet&lt;Integer&gt;</text>
    <text font-size="12.8" style="fill: #000000;text-anchor:start;font-family:monospace;font-style:italic;font-weight:700" x="-474.808" y="165.676">+dispatchZones(teams:Set&lt;Team&gt;): void</text>
  </g>
  <g>
    <rect style="fill: #ffffff" x="-197.395" y="328.142" width="156.3" height="28"/>
    <rect style="fill: none; fill-opacity:0; stroke-width: 2; stroke: #000000" x="-197.395" y="328.142" width="156.3" height="28"/>
    <text font-size="16" style="fill: #000000;text-anchor:middle;font-family:sans-serif;font-style:normal;font-weight:700" x="-119.245" y="347.142">Pawn</text>
    <rect style="fill: #ffffff" x="-197.395" y="356.142" width="156.3" height="20"/>
    <rect style="fill: none; fill-opacity:0; stroke-width: 2; stroke: #000000" x="-197.395" y="356.142" width="156.3" height="20"/>
    <text font-size="12.8" style="fill: #000000;text-anchor:start;font-family:monospace;font-style:normal;font-weight:normal" x="-194.395" y="370.142">-owner: Player</text>
    <rect style="fill: #ffffff" x="-197.395" y="376.142" width="156.3" height="36"/>
    <rect style="fill: none; fill-opacity:0; stroke-width: 2; stroke: #000000" x="-197.395" y="376.142" width="156.3" height="36"/>
    <text font-size="12.8" style="fill: #000000;text-anchor:start;font-family:monospace;font-style:normal;font-weight:normal" x="-194.395" y="390.142">+Pawn(owner:Player)</text>
    <text font-size="12.8" style="fill: #000000;text-anchor:start;font-family:monospace;font-style:normal;font-weight:normal" x="-194.395" y="406.142">+getOwner(): Player</text>
  </g>
  <g>
    <rect style="fill: #ffffff" x="426.372" y="229.53" width="318" height="28"/>
    <rect style="fill: none; fill-opacity:0; stroke-width: 2; stroke: #000000" x="426.372" y="229.53" width="318" height="28"/>
    <text font-size="16" style="fill: #000000;text-anchor:middle;font-family:sans-serif;font-style:normal;font-weight:700" x="585.372" y="248.53">Player</text>
    <rect style="fill: #ffffff" x="426.372" y="257.53" width="318" height="36"/>
    <rect style="fill: none; fill-opacity:0; stroke-width: 2; stroke: #000000" x="426.372" y="257.53" width="318" height="36"/>
    <text font-size="12.8" style="fill: #000000;text-anchor:start;font-family:monospace;font-style:normal;font-weight:normal" x="429.372" y="271.53">-initialZones: Set&lt;BoardZone&gt;</text>
    <text font-size="12.8" style="fill: #000000;text-anchor:start;font-family:monospace;font-style:normal;font-weight:normal" x="429.372" y="287.53">-name: String</text>
    <rect style="fill: #ffffff" x="426.372" y="293.53" width="318" height="84"/>
    <rect style="fill: none; fill-opacity:0; stroke-width: 2; stroke: #000000" x="426.372" y="293.53" width="318" height="84"/>
    <text font-size="12.8" style="fill: #000000;text-anchor:start;font-family:monospace;font-style:normal;font-weight:normal" x="429.372" y="307.53">+Player(name:String)</text>
    <text font-size="12.8" style="fill: #000000;text-anchor:start;font-family:monospace;font-style:normal;font-weight:normal" x="429.372" y="323.53">+getName(): String</text>
    <text font-size="12.8" style="fill: #000000;text-anchor:start;font-family:monospace;font-style:normal;font-weight:normal" x="429.372" y="339.53">+hasWon(): boolean</text>
    <text font-size="12.8" style="fill: #000000;text-anchor:start;font-family:monospace;font-style:normal;font-weight:normal" x="429.372" y="355.53">+addInitialZone(zone:BoardZone): boolean</text>
    <text font-size="12.8" style="fill: #000000;text-anchor:start;font-family:monospace;font-style:normal;font-weight:normal" x="429.372" y="371.53">+getInitalZones(): Set&lt;BoardZone&gt;</text>
  </g>
  <g>
    <rect style="fill: #ffffff" x="51.7974" y="-201.182" width="264.1" height="28"/>
    <rect style="fill: none; fill-opacity:0; stroke-width: 2; stroke: #000000" x="51.7974" y="-201.182" width="264.1" height="28"/>
    <text font-size="16" style="fill: #000000;text-anchor:middle;font-family:sans-serif;font-style:normal;font-weight:700" x="183.847" y="-182.182">Game</text>
    <rect style="fill: #ffffff" x="51.7974" y="-173.182" width="264.1" height="84"/>
    <rect style="fill: none; fill-opacity:0; stroke-width: 2; stroke: #000000" x="51.7974" y="-173.182" width="264.1" height="84"/>
    <text font-size="12.8" style="fill: #000000;text-anchor:start;font-family:monospace;font-style:normal;font-weight:normal" x="54.7974" y="-159.182">-currentPlayer: Player</text>
    <text font-size="12.8" style="fill: #000000;text-anchor:start;font-family:monospace;font-style:normal;font-weight:normal" x="54.7974" y="-143.182">-players: List&lt;Player&gt;</text>
    <text font-size="12.8" style="fill: #000000;text-anchor:start;font-family:monospace;font-style:normal;font-weight:normal" x="54.7974" y="-127.182">-teams: Set&lt;Team&gt;</text>
    <text font-size="12.8" style="fill: #000000;text-anchor:start;font-family:monospace;font-style:normal;font-weight:normal" x="54.7974" y="-111.182">-turnCount: int</text>
    <text font-size="12.8" style="fill: #000000;text-anchor:start;font-family:monospace;font-style:normal;font-weight:normal" x="54.7974" y="-95.182">-board: AbstractBoard</text>
    <rect style="fill: #ffffff" x="51.7974" y="-89.182" width="264.1" height="164"/>
    <rect style="fill: none; fill-opacity:0; stroke-width: 2; stroke: #000000" x="51.7974" y="-89.182" width="264.1" height="164"/>
    <text font-size="12.8" style="fill: #000000;text-anchor:start;font-family:monospace;font-style:normal;font-weight:normal" x="54.7974" y="-75.182">+Game(board:AbstractBoard)</text>
    <text font-size="12.8" style="fill: #000000;text-anchor:start;font-family:monospace;font-style:normal;font-weight:normal" x="54.7974" y="-59.182">+nextTurn(): void</text>
    <text font-size="12.8" style="fill: #000000;text-anchor:start;font-family:monospace;font-style:normal;font-weight:normal" x="54.7974" y="-43.182">+isGameOver(): boolean</text>
    <text font-size="12.8" style="fill: #000000;text-anchor:start;font-family:monospace;font-style:normal;font-weight:normal" x="54.7974" y="-27.182">+getWinner(): Team</text>
    <text font-size="12.8" style="fill: #000000;text-anchor:start;font-family:monospace;font-style:normal;font-weight:normal" x="54.7974" y="-11.182">+getCurrentPlayer(): Player</text>
    <text font-size="12.8" style="fill: #000000;text-anchor:start;font-family:monospace;font-style:normal;font-weight:normal" x="54.7974" y="4.818">+getBoard(): AbstractBoard</text>
    <text font-size="12.8" style="fill: #000000;text-anchor:start;font-family:monospace;font-style:normal;font-weight:normal" x="54.7974" y="20.818">+getPlayers(): Collection&lt;Player&gt;</text>
    <text font-size="12.8" style="fill: #000000;text-anchor:start;font-family:monospace;font-style:normal;font-weight:normal" x="54.7974" y="36.818">+getTeams(): Set&lt;Team&gt;</text>
    <text font-size="12.8" style="fill: #000000;text-anchor:start;font-family:monospace;font-style:normal;font-weight:normal" x="54.7974" y="52.818">+addTeam(team:Team): void</text>
    <text font-size="12.8" style="fill: #000000;text-anchor:start;font-family:monospace;font-style:normal;font-weight:normal" x="54.7974" y="68.818">+getTurnCount(): int</text>
  </g>
  <g>
    <path style="fill: none; fill-opacity:0; stroke-width: 2; stroke: #000000" d="M 43.6199 -63.182 C 11.3332,-63.182 -236.044,-82.3294 -242.37,-25.3296"/>
    <polygon style="fill: #000000" points="50.7914,-63.182 45.7914,-58.182 40.7914,-63.182 45.7914,-68.182 "/>
    <polygon style="fill: none; fill-opacity:0; stroke-width: 2; stroke: #000000" points="50.7914,-63.182 45.7914,-58.182 40.7914,-63.182 45.7914,-68.182 "/>
  </g>
  <g>
    <path style="fill: none; fill-opacity:0; stroke-width: 2; stroke: #000000" d="M 588.711 385.669 C 592.146,470.153 97.5071,369.591 -40.0958,369.941"/>
    <polygon style="fill: #ffffff" points="588.42,378.503 593.619,383.296 588.826,388.495 583.627,383.702 "/>
    <polygon style="fill: none; fill-opacity:0; stroke-width: 2; stroke: #000000" points="588.42,378.503 593.619,383.296 588.826,388.495 583.627,383.702 "/>
  </g>
  <g>
    <path style="fill: none; fill-opacity:0; stroke-width: 2; stroke: #000000" d="M -187.399 178.736 C -94.3479,326.95 -177.836,209.694 -134.948,327.142"/>
    <polygon style="fill: #000000" points="-191.213,172.662 -184.32,174.238 -185.896,181.131 -192.789,179.555 "/>
    <polygon style="fill: none; fill-opacity:0; stroke-width: 2; stroke: #000000" points="-191.213,172.662 -184.32,174.238 -185.896,181.131 -192.789,179.555 "/>
  </g>
  <g>
    <path style="fill: none; fill-opacity:0; stroke-width: 2; stroke: #000000" d="M 352.829 218.77 C 395.046,218.77 553.614,174.676 566.886,228.526"/>
    <polygon style="fill: #000000" points="345.658,218.77 350.658,213.77 355.658,218.77 350.658,223.77 "/>
    <polygon style="fill: none; fill-opacity:0; stroke-width: 2; stroke: #000000" points="345.658,218.77 350.658,213.77 355.658,218.77 350.658,223.77 "/>
  </g>
  <g>
    <rect style="fill: #ffffff" x="-942.248" y="59.2344" width="202.5" height="28"/>
    <rect style="fill: none; fill-opacity:0; stroke-width: 2; stroke: #000000" x="-942.248" y="59.2344" width="202.5" height="28"/>
    <text font-size="16" style="fill: #000000;text-anchor:middle;font-family:sans-serif;font-style:normal;font-weight:700" x="-840.998" y="78.2344">Square</text>
    <rect style="fill: #ffffff" x="-942.248" y="87.2344" width="202.5" height="20"/>
    <rect style="fill: none; fill-opacity:0; stroke-width: 2; stroke: #000000" x="-942.248" y="87.2344" width="202.5" height="20"/>
    <text font-size="12.8" style="fill: #000000;text-anchor:start;font-family:monospace;font-style:normal;font-weight:normal" x="-939.248" y="101.234">-pawn: Pawn</text>
    <rect style="fill: #ffffff" x="-942.248" y="107.234" width="202.5" height="84"/>
    <rect style="fill: none; fill-opacity:0; stroke-width: 2; stroke: #000000" x="-942.248" y="107.234" width="202.5" height="84"/>
    <text font-size="12.8" style="fill: #000000;text-anchor:start;font-family:monospace;font-style:normal;font-weight:normal" x="-939.248" y="121.234">+Square()</text>
    <text font-size="12.8" style="fill: #000000;text-anchor:start;font-family:monospace;font-style:normal;font-weight:normal" x="-939.248" y="137.234">+Square(pawn:Pawn)</text>
    <text font-size="12.8" style="fill: #000000;text-anchor:start;font-family:monospace;font-style:normal;font-weight:normal" x="-939.248" y="153.234">+getPawn(): Pawn</text>
    <text font-size="12.8" style="fill: #000000;text-anchor:start;font-family:monospace;font-style:normal;font-weight:normal" x="-939.248" y="169.234">+setPawn(pawn:Pawn): void</text>
    <text font-size="12.8" style="fill: #000000;text-anchor:start;font-family:monospace;font-style:normal;font-weight:normal" x="-939.248" y="185.234">+isFree(): boolean</text>
  </g>
  <g>
    <path style="fill: none; fill-opacity:0; stroke-width: 2; stroke: #000000" d="M -485.954 73.6762 C -612.854,73.6762 -604.817,125.234 -738.889,125.234"/>
    <polygon style="fill: #000000" points="-478.782,73.6762 -483.782,78.6762 -488.782,73.6762 -483.782,68.6762 "/>
    <polygon style="fill: none; fill-opacity:0; stroke-width: 2; stroke: #000000" points="-478.782,73.6762 -483.782,78.6762 -488.782,73.6762 -483.782,68.6762 "/>
  </g>
  <g>
    <path style="fill: none; fill-opacity:0; stroke-width: 2; stroke: #000000" d="M -842.023 199.398 C -844.88,406.129 -432.602,432.291 -198.391,385.839"/>
    <polygon style="fill: #ffffff" points="-841.924,192.227 -836.993,197.296 -842.062,202.226 -846.992,197.158 "/>
    <polygon style="fill: none; fill-opacity:0; stroke-width: 2; stroke: #000000" points="-841.924,192.227 -836.993,197.296 -842.062,202.226 -846.992,197.158 "/>
  </g>
  <g>
    <rect style="fill: #00ff00" x="-311.67" y="-479.228" width="130.7" height="28"/>
    <rect style="fill: none; fill-opacity:0; stroke-width: 2; stroke: #000000" x="-311.67" y="-479.228" width="130.7" height="28"/>
    <text font-size="16" style="fill: #000000;text-anchor:middle;font-family:sans-serif;font-style:normal;font-weight:700" x="-246.32" y="-460.228">Le contrôleur</text>
  </g>
  <g>
    <path style="fill: none; fill-opacity:0; stroke-width: 2; stroke: #00ff00" d="M -246.204 -450.234 C -245.69,-383.54 201.439,-267.848 196.178,-206.643"/>
    <polyline style="fill: none; fill-opacity:0; stroke-width: 2; stroke: #00ff00" points="191.861,-214.807 195.987,-204.416 201.825,-213.951 "/>
  </g>
  <path style="fill: none; fill-opacity:0; stroke-width: 2; stroke: #00ff00" d="M -246.745 -450.226 C -249.161,-364.976 -240.892,-65.24 -244.476,-25.3016"/>
  <g>
    <rect style="fill: #00ff00" x="-200.072" y="-414.116" width="164.85" height="14.9"/>
    <text font-size="12.8" style="fill: #000000;text-anchor:start;font-family:sans-serif;font-style:normal;font-weight:normal" x="-200.072" y="-402.216">
      <tspan x="-200.072" y="-402.216">1. Récupère joueur actuel</tspan>
    </text>
  </g>
  <g>
    <rect style="fill: #00ff00" x="-360.994" y="-338.62" width="229.35" height="46.9"/>
    <text font-size="12.8" style="fill: #000000;text-anchor:start;font-family:sans-serif;font-style:normal;font-weight:normal" x="-360.994" y="-326.72">
      <tspan x="-360.994" y="-326.72">2. Vérifier le mouvement</tspan>
      <tspan x="-360.994" y="-310.72">3. Effectuer le mouvement (ou non)</tspan>
      <tspan x="-360.994" y="-294.72">    --&gt; màj du modèle</tspan>
    </text>
  </g>
  <g>
    <rect style="fill: #ffffff" x="-710.494" y="-212.438" width="271.8" height="28"/>
    <rect style="fill: none; fill-opacity:0; stroke-width: 2; stroke: #000000" x="-710.494" y="-212.438" width="271.8" height="28"/>
    <text font-size="16" style="fill: #000000;text-anchor:middle;font-family:sans-serif;font-style:normal;font-weight:700" x="-574.594" y="-193.438">BoardZone</text>
    <rect style="fill: #ffffff" x="-710.494" y="-184.438" width="271.8" height="36"/>
    <rect style="fill: none; fill-opacity:0; stroke-width: 2; stroke: #000000" x="-710.494" y="-184.438" width="271.8" height="36"/>
    <text font-size="12.8" style="fill: #000000;text-anchor:start;font-family:monospace;font-style:normal;font-weight:normal" x="-707.494" y="-170.438">-squares: Set&lt;Squares&gt;</text>
    <text font-size="12.8" style="fill: #000000;text-anchor:start;font-family:monospace;font-style:normal;font-weight:normal" x="-707.494" y="-154.438">-opponentZone: BoardZone</text>
    <rect style="fill: #ffffff" x="-710.494" y="-148.438" width="271.8" height="84"/>
    <rect style="fill: none; fill-opacity:0; stroke-width: 2; stroke: #000000" x="-710.494" y="-148.438" width="271.8" height="84"/>
    <text font-size="12.8" style="fill: #000000;text-anchor:start;font-family:monospace;font-style:normal;font-weight:normal" x="-707.494" y="-134.438">+BoardZone()</text>
    <text font-size="12.8" style="fill: #000000;text-anchor:start;font-family:monospace;font-style:normal;font-weight:normal" x="-707.494" y="-118.438">+addSquare(square:Square): boolean</text>
    <text font-size="12.8" style="fill: #000000;text-anchor:start;font-family:monospace;font-style:normal;font-weight:normal" x="-707.494" y="-102.438">+getOpponentZone(): BoardZone</text>
    <text font-size="12.8" style="fill: #000000;text-anchor:start;font-family:monospace;font-style:normal;font-weight:normal" x="-707.494" y="-86.438">+setOpponentZone(zone:BoardZone)</text>
    <text font-size="12.8" style="fill: #000000;text-anchor:start;font-family:monospace;font-style:normal;font-weight:normal" x="-707.494" y="-70.438">+isFull(player:Player): boolean</text>
  </g>
  <g>
    <path style="fill: none; fill-opacity:0; stroke-width: 2; stroke: #000000" d="M -718.671 -138.438 C -747.915,-138.438 -842.499,-83.7066 -841.479,58.2392"/>
    <polygon style="fill: #ffffff" points="-711.499,-138.438 -716.499,-133.438 -721.499,-138.438 -716.499,-143.438 "/>
    <polygon style="fill: none; fill-opacity:0; stroke-width: 2; stroke: #000000" points="-711.499,-138.438 -716.499,-133.438 -721.499,-138.438 -716.499,-143.438 "/>
  </g>
  <g>
    <path style="fill: none; fill-opacity:0; stroke-width: 2; stroke: #000000" d="M -485.959 63.0382 C -543.997,60.3839 -576.5,6.51929 -575.58,-63.4357"/>
    <polygon style="fill: #ffffff" points="-478.795,63.3659 -484.019,68.1322 -488.785,62.909 -483.562,58.1427 "/>
    <polygon style="fill: none; fill-opacity:0; stroke-width: 2; stroke: #000000" points="-478.795,63.3659 -484.019,68.1322 -488.785,62.909 -483.562,58.1427 "/>
  </g>
  <g>
    <rect style="fill: #ffff00" x="-1013.22" y="-379.414" width="181.65" height="18.95"/>
    <text font-size="16.2447" style="fill: #000000;text-anchor:start;font-family:sans-serif;font-style:normal;font-weight:normal" x="-1013.22" y="-364.314">
      <tspan x="-1013.22" y="-364.314">1. Création du plateau</tspan>
    </text>
  </g>
  <text font-size="12.8" style="fill: #000000;text-anchor:start;font-family:sans-serif;font-style:normal;font-weight:normal" x="-840.684" y="-375.626">
    <tspan x="-840.684" y="-375.626"></tspan>
  </text>
  <g>
    <rect style="fill: #ffff00" x="-1078.68" y="-291.784" width="309.6" height="39.2559"/>
    <text font-size="16.2447" style="fill: #000000;text-anchor:start;font-family:sans-serif;font-style:normal;font-weight:normal" x="-1078.68" y="-276.684">
      <tspan x="-1078.68" y="-276.684">3. Assignation des équipes au plateau</tspan>
      <tspan x="-1078.68" y="-256.378">    --&gt; Dispose les joueurs face à face</tspan>
    </text>
  </g>
  <g>
    <rect style="fill: #ffff00" x="-1210.82" y="-350.09" width="654.65" height="39.2559"/>
    <text font-size="16.2447" style="fill: #000000;text-anchor:start;font-family:sans-serif;font-style:normal;font-weight:normal" x="-1210.82" y="-334.99">
      <tspan x="-1210.82" y="-334.99">2. Création des joueurs et organisation en équipes équitables, 1 ou 2 par équipe</tspan>
      <tspan x="-1210.82" y="-314.684">(le nombre de joueurs doit être parmi ceux autorisés par le plateau)</tspan>
    </text>
  </g>
  <g>
    <rect style="fill: #ffffff" x="72.851" y="128.769" width="271.8" height="28"/>
    <rect style="fill: none; fill-opacity:0; stroke-width: 2; stroke: #000000" x="72.851" y="128.769" width="271.8" height="28"/>
    <text font-size="16" style="fill: #000000;text-anchor:middle;font-family:sans-serif;font-style:normal;font-weight:700" x="208.751" y="147.769">Team</text>
    <rect style="fill: #ffffff" x="72.851" y="156.769" width="271.8" height="36"/>
    <rect style="fill: none; fill-opacity:0; stroke-width: 2; stroke: #000000" x="72.851" y="156.769" width="271.8" height="36"/>
    <text font-size="12.8" style="fill: #000000;text-anchor:start;font-family:monospace;font-style:normal;font-weight:normal" x="75.851" y="170.769">-players: Set&lt;Player&gt;</text>
    <text font-size="12.8" style="fill: #000000;text-anchor:start;font-family:monospace;font-style:normal;font-weight:normal" x="75.851" y="186.769">-opponentTeam: Team</text>
    <rect style="fill: #ffffff" x="72.851" y="192.769" width="271.8" height="116"/>
    <rect style="fill: none; fill-opacity:0; stroke-width: 2; stroke: #000000" x="72.851" y="192.769" width="271.8" height="116"/>
    <text font-size="12.8" style="fill: #000000;text-anchor:start;font-family:monospace;font-style:normal;font-weight:normal" x="75.851" y="206.769">+Team()</text>
    <text font-size="12.8" style="fill: #000000;text-anchor:start;font-family:monospace;font-style:normal;font-weight:normal" x="75.851" y="222.769">+Team(players:Set&lt;Player&gt;)</text>
    <text font-size="12.8" style="fill: #000000;text-anchor:start;font-family:monospace;font-style:normal;font-weight:normal" x="75.851" y="238.769">+addPlayer(player:Player): boolean</text>
    <text font-size="12.8" style="fill: #000000;text-anchor:start;font-family:monospace;font-style:normal;font-weight:normal" x="75.851" y="254.769">+getPlayers(): Set&lt;Player&gt;</text>
    <text font-size="12.8" style="fill: #000000;text-anchor:start;font-family:monospace;font-style:normal;font-weight:normal" x="75.851" y="270.769">+setOpponentTeam(team:Team): void</text>
    <text font-size="12.8" style="fill: #000000;text-anchor:start;font-family:monospace;font-style:normal;font-weight:normal" x="75.851" y="286.769">+getOpponentTeam(): Team</text>
    <text font-size="12.8" style="fill: #000000;text-anchor:start;font-family:monospace;font-style:normal;font-weight:normal" x="75.851" y="302.769">+hasWon(): boolean</text>
  </g>
  <g>
    <path style="fill: none; fill-opacity:0; stroke-width: 2; stroke: #000000" d="M 202.46 127.761 C 200.524,99.7485 223.552,143.211 211.941,82.8539"/>
    <polygon style="fill: #000000" points="210.586,75.8115 216.441,79.7769 212.475,85.6314 206.621,81.666 "/>
    <polygon style="fill: none; fill-opacity:0; stroke-width: 2; stroke: #000000" points="210.586,75.8115 216.441,79.7769 212.475,85.6314 206.621,81.666 "/>
  </g>
  <g>
    <path style="fill: none; fill-opacity:0; stroke-width: 2; stroke: #000000" d="M 71.8611 218.77 C -75.1379,218.77 119.095,73.6762 -20.7358,73.6762"/>
    <polygon style="fill: #ffffff" points="-27.9074,73.6762 -22.9074,68.6762 -17.9074,73.6762 -22.9074,78.6762 "/>
    <polygon style="fill: none; fill-opacity:0; stroke-width: 2; stroke: #000000" points="-27.9074,73.6762 -22.9074,68.6762 -17.9074,73.6762 -22.9074,78.6762 "/>
  </g>
  <g>
    <rect style="fill: #0042ff" x="-1318.46" y="-498.934" width="866.85" height="60.9996"/>
    <text font-size="16.6398" style="fill: #000000;text-anchor:start;font-family:sans-serif;font-style:normal;font-weight:normal" x="-1318.46" y="-483.484">
      <tspan x="-1318.46" y="-483.484">- Chaque zone admet une zone opposée</tspan>
      <tspan x="-1318.46" y="-462.684">- Chaque joueur possède un ensemble de zone de départ pour ses pions</tspan>
      <tspan x="-1318.46" y="-441.884">- Chaque joueur possède canoniquement un ensemble de zones adverses qu'il doit emplir de ses pions </tspan>
    </text>
  </g>
  <g>
    <rect style="fill: #ffffff" x="-618.862" y="205.618" width="371.9" height="28"/>
    <rect style="fill: none; fill-opacity:0; stroke-width: 2; stroke: #000000" x="-618.862" y="205.618" width="371.9" height="28"/>
    <text font-size="16" style="fill: #000000;text-anchor:middle;font-family:sans-serif;font-style:normal;font-weight:700" x="-432.912" y="224.618">DefaultBoard</text>
    <rect style="fill: #ffffff" x="-618.862" y="233.618" width="371.9" height="36"/>
    <rect style="fill: none; fill-opacity:0; stroke-width: 2; stroke: #000000" x="-618.862" y="233.618" width="371.9" height="36"/>
    <text font-size="12.8" style="fill: #000000;text-anchor:start;font-family:monospace;font-style:normal;font-weight:normal" x="-615.862" y="247.618">-BOARD_WIDTH: int = 13</text>
    <line style="fill: none; fill-opacity:0; stroke-width: 1; stroke: #000000" x1="-615.862" y1="253.218" x2="-446.462" y2="253.218"/>
    <text font-size="12.8" style="fill: #000000;text-anchor:start;font-family:monospace;font-style:normal;font-weight:normal" x="-615.862" y="263.618">-BOARD_HEIGHT: int = 17</text>
    <line style="fill: none; fill-opacity:0; stroke-width: 1; stroke: #000000" x1="-615.862" y1="269.218" x2="-438.762" y2="269.218"/>
    <rect style="fill: #ffffff" x="-618.862" y="269.618" width="371.9" height="68"/>
    <rect style="fill: none; fill-opacity:0; stroke-width: 2; stroke: #000000" x="-618.862" y="269.618" width="371.9" height="68"/>
    <text font-size="12.8" style="fill: #000000;text-anchor:start;font-family:monospace;font-style:normal;font-weight:normal" x="-615.862" y="283.618">+DefaultBoard()</text>
    <text font-size="12.8" style="fill: #000000;text-anchor:start;font-family:monospace;font-style:normal;font-weight:normal" x="-615.862" y="299.618">+getPossiblePlayerNumbers(): SortedSet&lt;Integer&gt;</text>
    <text font-size="12.8" style="fill: #000000;text-anchor:start;font-family:monospace;font-style:normal;font-weight:normal" x="-615.862" y="315.618">+dispatchZones(teams:Set&lt;Team&gt;): void</text>
    <text font-size="12.8" style="fill: #000000;text-anchor:start;font-family:monospace;font-style:normal;font-weight:normal" x="-615.862" y="331.618">-makeBoard(): Square[][]</text>
    <line style="fill: none; fill-opacity:0; stroke-width: 1; stroke: #000000" x1="-615.862" y1="333.218" x2="-431.062" y2="333.218"/>
  </g>
  <g>
    <polyline style="fill: none; fill-opacity:0; stroke-width: 2; stroke: #000000" points="-253.358,190.918 -253.358,209.682 -224.956,209.682 -224.956,271.618 -245.956,271.618 "/>
    <polygon style="fill: #ffffff" points="-245.358,190.918 -253.358,174.918 -261.358,190.918 "/>
    <polygon style="fill: none; fill-opacity:0; stroke-width: 2; stroke: #000000" points="-245.358,190.918 -253.358,174.918 -261.358,190.918 "/>
  </g>
  <g>
    <rect style="fill: #ffffff" x="478.002" y="-360.764" width="210.2" height="28"/>
    <rect style="fill: none; fill-opacity:0; stroke-width: 2; stroke: #000000" x="478.002" y="-360.764" width="210.2" height="28"/>
    <text font-size="16" style="fill: #000000;text-anchor:middle;font-family:sans-serif;font-style:normal;font-weight:700" x="583.102" y="-341.764">Main</text>
    <rect style="fill: #ffffff" x="478.002" y="-332.764" width="210.2" height="20"/>
    <rect style="fill: none; fill-opacity:0; stroke-width: 2; stroke: #000000" x="478.002" y="-332.764" width="210.2" height="20"/>
    <text font-size="12.8" style="fill: #000000;text-anchor:start;font-family:monospace;font-style:normal;font-weight:normal" x="481.002" y="-318.764">+main(args:String[]): void</text>
    <line style="fill: none; fill-opacity:0; stroke-width: 1; stroke: #000000" x1="481.002" y1="-317.164" x2="681.202" y2="-317.164"/>
  </g>
  <g>
    <rect style="fill: #ffffff" x="-561.506" y="447.584" width="418.1" height="28"/>
    <rect style="fill: none; fill-opacity:0; stroke-width: 2; stroke: #000000" x="-561.506" y="447.584" width="418.1" height="28"/>
    <text font-size="16" style="fill: #000000;text-anchor:middle;font-family:sans-serif;font-style:normal;font-weight:700" x="-352.456" y="466.584">Coordinates</text>
    <rect style="fill: #ffffff" x="-561.506" y="475.584" width="418.1" height="36"/>
    <rect style="fill: none; fill-opacity:0; stroke-width: 2; stroke: #000000" x="-561.506" y="475.584" width="418.1" height="36"/>
    <text font-size="12.8" style="fill: #000000;text-anchor:start;font-family:monospace;font-style:normal;font-weight:normal" x="-558.506" y="489.584">+x: int</text>
    <text font-size="12.8" style="fill: #000000;text-anchor:start;font-family:monospace;font-style:normal;font-weight:normal" x="-558.506" y="505.584">+y: int</text>
    <rect style="fill: #ffffff" x="-561.506" y="511.584" width="418.1" height="100"/>
    <rect style="fill: none; fill-opacity:0; stroke-width: 2; stroke: #000000" x="-561.506" y="511.584" width="418.1" height="100"/>
    <text font-size="12.8" style="fill: #000000;text-anchor:start;font-family:monospace;font-style:normal;font-weight:normal" x="-558.506" y="525.584">+Coordinates(x:int,y:int)</text>
    <text font-size="12.8" style="fill: #000000;text-anchor:start;font-family:monospace;font-style:normal;font-weight:normal" x="-558.506" y="541.584">+hashCode(): int</text>
    <text font-size="12.8" style="fill: #000000;text-anchor:start;font-family:monospace;font-style:normal;font-weight:normal" x="-558.506" y="557.584">+equals(obj:Coordinates): boolean</text>
    <text font-size="12.8" style="fill: #000000;text-anchor:start;font-family:monospace;font-style:normal;font-weight:normal" x="-558.506" y="573.584">+isAdjacentTo(coord:Coordinates): boolean</text>
    <text font-size="12.8" style="fill: #000000;text-anchor:start;font-family:monospace;font-style:normal;font-weight:normal" x="-558.506" y="589.584">+getMiddleCoordinates(coord:Coordinates): Coordinates</text>
    <text font-size="12.8" style="fill: #000000;text-anchor:start;font-family:monospace;font-style:normal;font-weight:normal" x="-558.506" y="605.584">+toString(): String</text>
  </g>
  <g>
    <rect style="fill: #ffffff" x="871.485" y="-237.132" width="537.254" height="877.931"/>
    <rect style="fill: none; fill-opacity:0; stroke-width: 2; stroke: #000000" x="871.485" y="-237.132" width="537.254" height="877.931"/>
    <rect style="fill: #ffffff" x="871.485" y="-257.132" width="40" height="20"/>
    <rect style="fill: none; fill-opacity:0; stroke-width: 2; stroke: #000000" x="871.485" y="-257.132" width="40" height="20"/>
    <text font-size="12.7998" style="fill: #000000;text-anchor:start;font-family:monospace;font-style:normal;font-weight:normal" x="873.485" y="-242.132">view</text>
  </g>
  <g>
    <rect style="fill: #ffffff" x="935.173" y="-196.046" width="81.8" height="28"/>
    <rect style="fill: none; fill-opacity:0; stroke-width: 2; stroke: #000000" x="935.173" y="-196.046" width="81.8" height="28"/>
    <text font-size="16" style="fill: #000000;text-anchor:middle;font-family:sans-serif;font-style:normal;font-weight:700" x="976.073" y="-177.046">Window</text>
    <rect style="fill: #ffffff" x="935.173" y="-168.046" width="81.8" height="8"/>
    <rect style="fill: none; fill-opacity:0; stroke-width: 2; stroke: #000000" x="935.173" y="-168.046" width="81.8" height="8"/>
    <rect style="fill: #ffffff" x="935.173" y="-160.046" width="81.8" height="20"/>
    <rect style="fill: none; fill-opacity:0; stroke-width: 2; stroke: #000000" x="935.173" y="-160.046" width="81.8" height="20"/>
    <text font-size="12.8" style="fill: #000000;text-anchor:start;font-family:monospace;font-style:normal;font-weight:normal" x="938.173" y="-146.046">+Window()</text>
  </g>
  <g>
    <rect style="fill: #ffffff" x="937.337" y="-118.2" width="423.831" height="309.195"/>
    <rect style="fill: none; fill-opacity:0; stroke-width: 2; stroke: #000000" x="937.337" y="-118.2" width="423.831" height="309.195"/>
    <rect style="fill: #ffffff" x="937.337" y="-138.2" width="73.3" height="20"/>
    <rect style="fill: none; fill-opacity:0; stroke-width: 2; stroke: #000000" x="937.337" y="-138.2" width="73.3" height="20"/>
    <text font-size="12.7998" style="fill: #000000;text-anchor:start;font-family:monospace;font-style:normal;font-weight:normal" x="939.337" y="-123.2">gamepanel</text>
  </g>
  <g>
    <rect style="fill: #ffffff" x="939.499" y="402.061" width="220.564" height="201.102"/>
    <rect style="fill: none; fill-opacity:0; stroke-width: 2; stroke: #000000" x="939.499" y="402.061" width="220.564" height="201.102"/>
    <rect style="fill: #ffffff" x="939.499" y="382.061" width="73.3" height="20"/>
    <rect style="fill: none; fill-opacity:0; stroke-width: 2; stroke: #000000" x="939.499" y="382.061" width="73.3" height="20"/>
    <text font-size="12.7998" style="fill: #000000;text-anchor:start;font-family:monospace;font-style:normal;font-weight:normal" x="941.499" y="397.061">roompanel</text>
  </g>
  <g>
    <rect style="fill: #ffffff" x="939.715" y="248.1" width="335.173" height="103.795"/>
    <rect style="fill: none; fill-opacity:0; stroke-width: 2; stroke: #000000" x="939.715" y="248.1" width="335.173" height="103.795"/>
    <rect style="fill: #ffffff" x="939.715" y="228.1" width="73.3" height="20"/>
    <rect style="fill: none; fill-opacity:0; stroke-width: 2; stroke: #000000" x="939.715" y="228.1" width="73.3" height="20"/>
    <text font-size="12.7998" style="fill: #000000;text-anchor:start;font-family:monospace;font-style:normal;font-weight:normal" x="941.715" y="243.1">homepanel</text>
  </g>
  <g>
    <rect style="fill: #ffffff" x="956.368" y="-89.6568" width="111.3" height="44"/>
    <rect style="fill: none; fill-opacity:0; stroke-width: 2; stroke: #000000" x="956.368" y="-89.6568" width="111.3" height="44"/>
    <text font-size="12.8" style="fill: #000000;text-anchor:middle;font-family:monospace;font-style:normal;font-weight:normal" x="1012.02" y="-73.6568">&lt;&lt;JPanel&gt;&gt;</text>
    <text font-size="16" style="fill: #000000;text-anchor:middle;font-family:sans-serif;font-style:normal;font-weight:700" x="1012.02" y="-54.6568">GamePanel</text>
    <rect style="fill: #ffffff" x="956.368" y="-45.6568" width="111.3" height="8"/>
    <rect style="fill: none; fill-opacity:0; stroke-width: 2; stroke: #000000" x="956.368" y="-45.6568" width="111.3" height="8"/>
    <rect style="fill: #ffffff" x="956.368" y="-37.6568" width="111.3" height="8"/>
    <rect style="fill: none; fill-opacity:0; stroke-width: 2; stroke: #000000" x="956.368" y="-37.6568" width="111.3" height="8"/>
  </g>
  <g>
    <rect style="fill: #ffffff" x="1013.24" y="276.211" width="111.75" height="28"/>
    <rect style="fill: none; fill-opacity:0; stroke-width: 2; stroke: #000000" x="1013.24" y="276.211" width="111.75" height="28"/>
    <text font-size="16" style="fill: #000000;text-anchor:middle;font-family:sans-serif;font-style:normal;font-weight:700" x="1069.11" y="295.211">HomePanel</text>
    <rect style="fill: #ffffff" x="1013.24" y="304.211" width="111.75" height="8"/>
    <rect style="fill: none; fill-opacity:0; stroke-width: 2; stroke: #000000" x="1013.24" y="304.211" width="111.75" height="8"/>
    <rect style="fill: #ffffff" x="1013.24" y="312.211" width="111.75" height="8"/>
    <rect style="fill: none; fill-opacity:0; stroke-width: 2; stroke: #000000" x="1013.24" y="312.211" width="111.75" height="8"/>
  </g>
  <g>
    <rect style="fill: #ffffff" x="969.773" y="484.231" width="110.8" height="44"/>
    <rect style="fill: none; fill-opacity:0; stroke-width: 2; stroke: #000000" x="969.773" y="484.231" width="110.8" height="44"/>
    <text font-size="12.8" style="fill: #000000;text-anchor:middle;font-family:monospace;font-style:normal;font-weight:normal" x="1025.17" y="500.231">&lt;&lt;JPanel&gt;&gt;</text>
    <text font-size="16" style="fill: #000000;text-anchor:middle;font-family:sans-serif;font-style:normal;font-weight:700" x="1025.17" y="519.231">RoomPanel</text>
    <rect style="fill: #ffffff" x="969.773" y="528.231" width="110.8" height="8"/>
    <rect style="fill: none; fill-opacity:0; stroke-width: 2; stroke: #000000" x="969.773" y="528.231" width="110.8" height="8"/>
    <rect style="fill: #ffffff" x="969.773" y="536.231" width="110.8" height="8"/>
    <rect style="fill: none; fill-opacity:0; stroke-width: 2; stroke: #000000" x="969.773" y="536.231" width="110.8" height="8"/>
  </g>
  <g>
    <rect style="fill: #ffffff" x="1159.6" y="102.787" width="112.3" height="44"/>
    <rect style="fill: none; fill-opacity:0; stroke-width: 2; stroke: #000000" x="1159.6" y="102.787" width="112.3" height="44"/>
    <text font-size="12.8" style="fill: #000000;text-anchor:middle;font-family:monospace;font-style:normal;font-weight:normal" x="1215.75" y="118.787">&lt;&lt;JPanel&gt;&gt;</text>
    <text font-size="16" style="fill: #000000;text-anchor:middle;font-family:sans-serif;font-style:normal;font-weight:700" x="1215.75" y="137.787">ActionZone</text>
    <rect style="fill: #ffffff" x="1159.6" y="146.787" width="112.3" height="8"/>
    <rect style="fill: none; fill-opacity:0; stroke-width: 2; stroke: #000000" x="1159.6" y="146.787" width="112.3" height="8"/>
    <rect style="fill: #ffffff" x="1159.6" y="154.787" width="112.3" height="20"/>
    <rect style="fill: none; fill-opacity:0; stroke-width: 2; stroke: #000000" x="1159.6" y="154.787" width="112.3" height="20"/>
    <text font-size="12.8" style="fill: #000000;text-anchor:start;font-family:monospace;font-style:normal;font-weight:normal" x="1162.6" y="168.787">+ActionZone()</text>
  </g>
  <g>
    <rect style="fill: #ffffff" x="1079.85" y="-1.86281" width="271.8" height="44"/>
    <rect style="fill: none; fill-opacity:0; stroke-width: 2; stroke: #000000" x="1079.85" y="-1.86281" width="271.8" height="44"/>
    <text font-size="12.8" style="fill: #000000;text-anchor:middle;font-family:monospace;font-style:normal;font-weight:normal" x="1215.75" y="14.1372">&lt;&lt;JPanel&gt;&gt;</text>
    <text font-size="16" style="fill: #000000;text-anchor:middle;font-family:sans-serif;font-style:normal;font-weight:700" x="1215.75" y="33.1372">DrawZone</text>
    <rect style="fill: #ffffff" x="1079.85" y="42.1372" width="271.8" height="8"/>
    <rect style="fill: none; fill-opacity:0; stroke-width: 2; stroke: #000000" x="1079.85" y="42.1372" width="271.8" height="8"/>
    <rect style="fill: #ffffff" x="1079.85" y="50.1372" width="271.8" height="36"/>
    <rect style="fill: none; fill-opacity:0; stroke-width: 2; stroke: #000000" x="1079.85" y="50.1372" width="271.8" height="36"/>
    <text font-size="12.8" style="fill: #000000;text-anchor:start;font-family:monospace;font-style:normal;font-weight:normal" x="1082.85" y="64.1372">+DrawZone(game:Game,player:Player)</text>
    <text font-size="12.8" style="fill: #000000;text-anchor:start;font-family:monospace;font-style:normal;font-weight:normal" x="1082.85" y="80.1372">+paint(g:Graphics): void</text>
  </g>
  <g>
    <rect style="fill: #ffffff" x="1083.7" y="-103.487" width="264.1" height="44"/>
    <rect style="fill: none; fill-opacity:0; stroke-width: 2; stroke: #000000" x="1083.7" y="-103.487" width="264.1" height="44"/>
    <text font-size="12.8" style="fill: #000000;text-anchor:middle;font-family:monospace;font-style:normal;font-weight:normal" x="1215.75" y="-87.4866">&lt;&lt;JPanel&gt;&gt;</text>
    <text font-size="16" style="fill: #000000;text-anchor:middle;font-family:sans-serif;font-style:normal;font-weight:700" x="1215.75" y="-68.4866">InfoBar</text>
    <rect style="fill: #ffffff" x="1083.7" y="-59.4866" width="264.1" height="8"/>
    <rect style="fill: none; fill-opacity:0; stroke-width: 2; stroke: #000000" x="1083.7" y="-59.4866" width="264.1" height="8"/>
    <rect style="fill: #ffffff" x="1083.7" y="-51.4866" width="264.1" height="36"/>
    <rect style="fill: none; fill-opacity:0; stroke-width: 2; stroke: #000000" x="1083.7" y="-51.4866" width="264.1" height="36"/>
    <text font-size="12.8" style="fill: #000000;text-anchor:start;font-family:monospace;font-style:normal;font-weight:normal" x="1086.7" y="-37.4866">+InfoBar(game:Game,player:Player)</text>
    <text font-size="12.8" style="fill: #000000;text-anchor:start;font-family:monospace;font-style:normal;font-weight:normal" x="1086.7" y="-21.4866">+update(): void</text>
  </g>
  <g>
    <rect style="fill: #ffffff" x="-412.2" y="701.457" width="742.505" height="404.169"/>
    <rect style="fill: none; fill-opacity:0; stroke-width: 2; stroke: #000000" x="-412.2" y="701.457" width="742.505" height="404.169"/>
    <rect style="fill: #ffffff" x="-412.2" y="681.457" width="81" height="20"/>
    <rect style="fill: none; fill-opacity:0; stroke-width: 2; stroke: #000000" x="-412.2" y="681.457" width="81" height="20"/>
    <text font-size="12.7998" style="fill: #000000;text-anchor:start;font-family:monospace;font-style:normal;font-weight:normal" x="-410.2" y="696.457">controller</text>
  </g>
  <g>
    <rect style="fill: #ffffff" x="-219.548" y="985.816" width="318" height="28"/>
    <rect style="fill: none; fill-opacity:0; stroke-width: 2; stroke: #000000" x="-219.548" y="985.816" width="318" height="28"/>
    <text font-size="16" style="fill: #000000;text-anchor:middle;font-family:sans-serif;font-style:normal;font-weight:700" x="-60.5483" y="1004.82">GameController</text>
    <rect style="fill: #ffffff" x="-219.548" y="1013.82" width="318" height="8"/>
    <rect style="fill: none; fill-opacity:0; stroke-width: 2; stroke: #000000" x="-219.548" y="1013.82" width="318" height="8"/>
    <rect style="fill: #ffffff" x="-219.548" y="1021.82" width="318" height="52"/>
    <rect style="fill: none; fill-opacity:0; stroke-width: 2; stroke: #000000" x="-219.548" y="1021.82" width="318" height="52"/>
    <text font-size="12.8" style="fill: #000000;text-anchor:start;font-family:monospace;font-style:normal;font-weight:normal" x="-216.548" y="1035.82">+GameController(game:Game,player:Player,</text>
    <text font-size="12.8" style="fill: #000000;text-anchor:start;font-family:monospace;font-style:normal;font-weight:normal" x="-216.548" y="1051.82">                window:Window,)</text>
    <text font-size="12.8" style="fill: #000000;text-anchor:start;font-family:monospace;font-style:normal;font-weight:normal" x="-216.548" y="1067.82">+start()</text>
  </g>
  <g>
    <rect style="fill: #ffffff" x="-381.281" y="884.339" width="152.35" height="28"/>
    <rect style="fill: none; fill-opacity:0; stroke-width: 2; stroke: #000000" x="-381.281" y="884.339" width="152.35" height="28"/>
    <text font-size="16" style="fill: #000000;text-anchor:middle;font-family:sans-serif;font-style:normal;font-weight:700" x="-305.106" y="903.339">HomeController</text>
    <rect style="fill: #ffffff" x="-381.281" y="912.339" width="152.35" height="8"/>
    <rect style="fill: none; fill-opacity:0; stroke-width: 2; stroke: #000000" x="-381.281" y="912.339" width="152.35" height="8"/>
    <rect style="fill: #ffffff" x="-381.281" y="920.339" width="152.35" height="36"/>
    <rect style="fill: none; fill-opacity:0; stroke-width: 2; stroke: #000000" x="-381.281" y="920.339" width="152.35" height="36"/>
    <text font-size="12.8" style="fill: #000000;text-anchor:start;font-family:monospace;font-style:normal;font-weight:normal" x="-378.281" y="934.339">+HomeController()</text>
    <text font-size="12.8" style="fill: #000000;text-anchor:start;font-family:monospace;font-style:normal;font-weight:normal" x="-378.281" y="950.339">+start()</text>
  </g>
  <g>
    <rect style="fill: #ffffff" x="132.595" y="884.339" width="151.4" height="28"/>
    <rect style="fill: none; fill-opacity:0; stroke-width: 2; stroke: #000000" x="132.595" y="884.339" width="151.4" height="28"/>
    <text font-size="16" style="fill: #000000;text-anchor:middle;font-family:sans-serif;font-style:normal;font-weight:700" x="208.295" y="903.339">RoomController</text>
    <rect style="fill: #ffffff" x="132.595" y="912.339" width="151.4" height="8"/>
    <rect style="fill: none; fill-opacity:0; stroke-width: 2; stroke: #000000" x="132.595" y="912.339" width="151.4" height="8"/>
    <rect style="fill: #ffffff" x="132.595" y="920.339" width="151.4" height="36"/>
    <rect style="fill: none; fill-opacity:0; stroke-width: 2; stroke: #000000" x="132.595" y="920.339" width="151.4" height="36"/>
    <text font-size="12.8" style="fill: #000000;text-anchor:start;font-family:monospace;font-style:normal;font-weight:normal" x="135.595" y="934.339">+RoomController()</text>
    <text font-size="12.8" style="fill: #000000;text-anchor:start;font-family:monospace;font-style:normal;font-weight:normal" x="135.595" y="950.339">+start()</text>
  </g>
  <g>
    <rect style="fill: #ffffff" x="-150.148" y="758.539" width="179.2" height="28"/>
    <rect style="fill: none; fill-opacity:0; stroke-width: 2; stroke: #000000" x="-150.148" y="758.539" width="179.2" height="28"/>
    <text font-size="16" style="fill: #000000;text-anchor:middle;font-family:sans-serif;font-style:italic;font-weight:700" x="-60.5483" y="777.539">AbstractController</text>
    <rect style="fill: #ffffff" x="-150.148" y="786.539" width="179.2" height="8"/>
    <rect style="fill: none; fill-opacity:0; stroke-width: 2; stroke: #000000" x="-150.148" y="786.539" width="179.2" height="8"/>
    <rect style="fill: #ffffff" x="-150.148" y="794.539" width="179.2" height="20"/>
    <rect style="fill: none; fill-opacity:0; stroke-width: 2; stroke: #000000" x="-150.148" y="794.539" width="179.2" height="20"/>
    <text font-size="12.8" style="fill: #000000;text-anchor:start;font-family:monospace;font-style:italic;font-weight:700" x="-147.148" y="808.539">+start(): void</text>
  </g>
  <g>
    <polyline style="fill: none; fill-opacity:0; stroke-width: 2; stroke: #000000" points="-60.5483,833.782 -60.5483,832.546 -60.5483,983.811 -60.5483,984.811 "/>
    <polygon style="fill: #ffffff" points="-52.5483,833.782 -60.5483,817.782 -68.5483,833.782 "/>
    <polygon style="fill: none; fill-opacity:0; stroke-width: 2; stroke: #000000" points="-52.5483,833.782 -60.5483,817.782 -68.5483,833.782 "/>
  </g>
  <g>
    <polyline style="fill: none; fill-opacity:0; stroke-width: 2; stroke: #000000" points="-60.5483,833.782 -60.5483,857.438 -305.106,857.438 -305.106,883.33 "/>
    <polygon style="fill: #ffffff" points="-52.5483,833.782 -60.5483,817.782 -68.5483,833.782 "/>
    <polygon style="fill: none; fill-opacity:0; stroke-width: 2; stroke: #000000" points="-52.5483,833.782 -60.5483,817.782 -68.5483,833.782 "/>
  </g>
  <g>
    <polyline style="fill: none; fill-opacity:0; stroke-width: 2; stroke: #000000" points="-60.5483,833.782 -60.5483,857.438 208.295,857.438 208.295,883.33 "/>
    <polygon style="fill: #ffffff" points="-52.5483,833.782 -60.5483,817.782 -68.5483,833.782 "/>
    <polygon style="fill: none; fill-opacity:0; stroke-width: 2; stroke: #000000" points="-52.5483,833.782 -60.5483,817.782 -68.5483,833.782 "/>
  </g>
  <g>
    <rect style="fill: #ffffff" x="957.844" y="10.2353" width="106.6" height="28"/>
    <rect style="fill: none; fill-opacity:0; stroke-width: 2; stroke: #000000" x="957.844" y="10.2353" width="106.6" height="28"/>
    <text font-size="16" style="fill: #000000;text-anchor:middle;font-family:sans-serif;font-style:normal;font-weight:700" x="1011.14" y="29.2353">BoardView</text>
    <rect style="fill: #ffffff" x="957.844" y="38.2353" width="106.6" height="8"/>
    <rect style="fill: none; fill-opacity:0; stroke-width: 2; stroke: #000000" x="957.844" y="38.2353" width="106.6" height="8"/>
    <rect style="fill: #ffffff" x="957.844" y="46.2353" width="106.6" height="20"/>
    <rect style="fill: none; fill-opacity:0; stroke-width: 2; stroke: #000000" x="957.844" y="46.2353" width="106.6" height="20"/>
    <text font-size="12.8" style="fill: #000000;text-anchor:start;font-family:monospace;font-style:normal;font-weight:normal" x="960.844" y="60.2353">+BoardView()</text>
  </g>
</svg>
